<svg width="672" height="314" viewBox="0 0 672 314" fill="none" xmlns="http://www.w3.org/2000/svg">
<g clip-path="url(#clip0_5_14553)">
<rect width="672" height="314" rx="16" fill="#2752E7"/>
<ellipse opacity="0.2" cx="313" cy="381.5" rx="254" ry="253.5" fill="#6188DD"/>
<ellipse cx="20" cy="39.5" rx="64" ry="64.5" fill="#406EEC"/>
<circle cx="678" cy="138" r="98" fill="#406EEC"/>
<path d="M118.292 88V59.2H135.632V64.02H123.112V71.2H133.232V76H123.112V88H118.292ZM148.184 88.6C146.024 88.6 144.137 88.1133 142.524 87.14C140.91 86.1667 139.657 84.8267 138.764 83.12C137.884 81.4 137.444 79.4267 137.444 77.2C137.444 74.9333 137.897 72.9467 138.804 71.24C139.71 69.5333 140.97 68.2 142.584 67.24C144.197 66.28 146.064 65.8 148.184 65.8C150.357 65.8 152.25 66.2867 153.864 67.26C155.477 68.2333 156.73 69.58 157.624 71.3C158.517 73.0067 158.964 74.9733 158.964 77.2C158.964 79.44 158.51 81.42 157.604 83.14C156.71 84.8467 155.457 86.1867 153.844 87.16C152.23 88.12 150.344 88.6 148.184 88.6ZM148.184 84.08C150.104 84.08 151.53 83.44 152.464 82.16C153.397 80.88 153.864 79.2267 153.864 77.2C153.864 75.1067 153.39 73.44 152.444 72.2C151.497 70.9467 150.077 70.32 148.184 70.32C146.89 70.32 145.824 70.6133 144.984 71.2C144.157 71.7733 143.544 72.58 143.144 73.62C142.744 74.6467 142.544 75.84 142.544 77.2C142.544 79.2933 143.017 80.9667 143.964 82.22C144.924 83.46 146.33 84.08 148.184 84.08ZM163.37 88V66.4H167.63V71.66L167.11 70.98C167.377 70.26 167.73 69.6067 168.17 69.02C168.624 68.42 169.164 67.9267 169.79 67.54C170.324 67.18 170.91 66.9 171.55 66.7C172.204 66.4867 172.87 66.36 173.55 66.32C174.23 66.2667 174.89 66.2933 175.53 66.4V70.9C174.89 70.7133 174.15 70.6533 173.31 70.72C172.484 70.7867 171.737 71.02 171.07 71.42C170.404 71.78 169.857 72.24 169.43 72.8C169.017 73.36 168.71 74 168.51 74.72C168.31 75.4267 168.21 76.1933 168.21 77.02V88H163.37ZM199.535 88.6C196.655 88.6 194.188 87.9733 192.135 86.72C190.081 85.4533 188.501 83.6933 187.395 81.44C186.301 79.1867 185.755 76.5733 185.755 73.6C185.755 70.6267 186.301 68.0133 187.395 65.76C188.501 63.5067 190.081 61.7533 192.135 60.5C194.188 59.2333 196.655 58.6 199.535 58.6C202.855 58.6 205.621 59.4333 207.835 61.1C210.048 62.7533 211.601 64.9867 212.495 67.8L207.635 69.14C207.075 67.26 206.121 65.7933 204.775 64.74C203.428 63.6733 201.681 63.14 199.535 63.14C197.601 63.14 195.988 63.5733 194.695 64.44C193.415 65.3067 192.448 66.5267 191.795 68.1C191.155 69.66 190.828 71.4933 190.815 73.6C190.815 75.7067 191.135 77.5467 191.775 79.12C192.428 80.68 193.401 81.8933 194.695 82.76C195.988 83.6267 197.601 84.06 199.535 84.06C201.681 84.06 203.428 83.5267 204.775 82.46C206.121 81.3933 207.075 79.9267 207.635 78.06L212.495 79.4C211.601 82.2133 210.048 84.4533 207.835 86.12C205.621 87.7733 202.855 88.6 199.535 88.6ZM226.426 88.6C224.266 88.6 222.379 88.1133 220.766 87.14C219.153 86.1667 217.899 84.8267 217.006 83.12C216.126 81.4 215.686 79.4267 215.686 77.2C215.686 74.9333 216.139 72.9467 217.046 71.24C217.953 69.5333 219.213 68.2 220.826 67.24C222.439 66.28 224.306 65.8 226.426 65.8C228.599 65.8 230.493 66.2867 232.106 67.26C233.719 68.2333 234.973 69.58 235.866 71.3C236.759 73.0067 237.206 74.9733 237.206 77.2C237.206 79.44 236.753 81.42 235.846 83.14C234.953 84.8467 233.699 86.1867 232.086 87.16C230.473 88.12 228.586 88.6 226.426 88.6ZM226.426 84.08C228.346 84.08 229.773 83.44 230.706 82.16C231.639 80.88 232.106 79.2267 232.106 77.2C232.106 75.1067 231.633 73.44 230.686 72.2C229.739 70.9467 228.319 70.32 226.426 70.32C225.133 70.32 224.066 70.6133 223.226 71.2C222.399 71.7733 221.786 72.58 221.386 73.62C220.986 74.6467 220.786 75.84 220.786 77.2C220.786 79.2933 221.259 80.9667 222.206 82.22C223.166 83.46 224.573 84.08 226.426 84.08ZM241.613 88V66.4H245.873V71.66L245.353 70.98C245.619 70.26 245.973 69.6067 246.413 69.02C246.866 68.42 247.406 67.9267 248.033 67.54C248.566 67.18 249.153 66.9 249.793 66.7C250.446 66.4867 251.113 66.36 251.793 66.32C252.473 66.2667 253.133 66.2933 253.773 66.4V70.9C253.133 70.7133 252.393 70.6533 251.553 70.72C250.726 70.7867 249.979 71.02 249.313 71.42C248.646 71.78 248.099 72.24 247.673 72.8C247.259 73.36 246.953 74 246.753 74.72C246.553 75.4267 246.453 76.1933 246.453 77.02V88H241.613ZM267.969 88.6C265.862 88.6 264.096 88.1 262.669 87.1C261.242 86.1 260.169 84.74 259.449 83.02C258.729 81.2867 258.369 79.3467 258.369 77.2C258.369 75.0267 258.729 73.08 259.449 71.36C260.169 69.64 261.222 68.2867 262.609 67.3C264.009 66.3 265.736 65.8 267.789 65.8C269.829 65.8 271.596 66.3 273.089 67.3C274.596 68.2867 275.762 69.64 276.589 71.36C277.416 73.0667 277.829 75.0133 277.829 77.2C277.829 79.36 277.422 81.3 276.609 83.02C275.796 84.74 274.649 86.1 273.169 87.1C271.689 88.1 269.956 88.6 267.969 88.6ZM257.549 97.6V66.4H261.809V81.56H262.409V97.6H257.549ZM267.229 84.28C268.482 84.28 269.516 83.9667 270.329 83.34C271.142 82.7133 271.742 81.8667 272.129 80.8C272.529 79.72 272.729 78.52 272.729 77.2C272.729 75.8933 272.529 74.7067 272.129 73.64C271.729 72.56 271.109 71.7067 270.269 71.08C269.429 70.44 268.362 70.12 267.069 70.12C265.842 70.12 264.842 70.42 264.069 71.02C263.296 71.6067 262.722 72.4333 262.349 73.5C261.989 74.5533 261.809 75.7867 261.809 77.2C261.809 78.6 261.989 79.8333 262.349 80.9C262.722 81.9667 263.302 82.8 264.089 83.4C264.889 83.9867 265.936 84.28 267.229 84.28ZM291.778 88.6C289.618 88.6 287.731 88.1133 286.118 87.14C284.504 86.1667 283.251 84.8267 282.358 83.12C281.478 81.4 281.038 79.4267 281.038 77.2C281.038 74.9333 281.491 72.9467 282.398 71.24C283.304 69.5333 284.564 68.2 286.178 67.24C287.791 66.28 289.658 65.8 291.778 65.8C293.951 65.8 295.844 66.2867 297.458 67.26C299.071 68.2333 300.324 69.58 301.218 71.3C302.111 73.0067 302.558 74.9733 302.558 77.2C302.558 79.44 302.104 81.42 301.198 83.14C300.304 84.8467 299.051 86.1867 297.438 87.16C295.824 88.12 293.938 88.6 291.778 88.6ZM291.778 84.08C293.698 84.08 295.124 83.44 296.058 82.16C296.991 80.88 297.458 79.2267 297.458 77.2C297.458 75.1067 296.984 73.44 296.038 72.2C295.091 70.9467 293.671 70.32 291.778 70.32C290.484 70.32 289.418 70.6133 288.578 71.2C287.751 71.7733 287.138 72.58 286.738 73.62C286.338 74.6467 286.138 75.84 286.138 77.2C286.138 79.2933 286.611 80.9667 287.558 82.22C288.518 83.46 289.924 84.08 291.778 84.08ZM306.964 88V66.4H311.224V71.66L310.704 70.98C310.971 70.26 311.324 69.6067 311.764 69.02C312.217 68.42 312.757 67.9267 313.384 67.54C313.917 67.18 314.504 66.9 315.144 66.7C315.797 66.4867 316.464 66.36 317.144 66.32C317.824 66.2667 318.484 66.2933 319.124 66.4V70.9C318.484 70.7133 317.744 70.6533 316.904 70.72C316.077 70.7867 315.331 71.02 314.664 71.42C313.997 71.78 313.451 72.24 313.024 72.8C312.611 73.36 312.304 74 312.104 74.72C311.904 75.4267 311.804 76.1933 311.804 77.02V88H306.964ZM328.473 88.6C326.913 88.6 325.593 88.3067 324.513 87.72C323.433 87.12 322.613 86.3267 322.053 85.34C321.506 84.3533 321.233 83.2667 321.233 82.08C321.233 81.04 321.406 80.1067 321.753 79.28C322.099 78.44 322.633 77.72 323.353 77.12C324.073 76.5067 325.006 76.0067 326.153 75.62C327.019 75.34 328.033 75.0867 329.193 74.86C330.366 74.6333 331.633 74.4267 332.993 74.24C334.366 74.04 335.799 73.8267 337.293 73.6L335.573 74.58C335.586 73.0867 335.253 71.9867 334.573 71.28C333.893 70.5733 332.746 70.22 331.133 70.22C330.159 70.22 329.219 70.4467 328.313 70.9C327.406 71.3533 326.773 72.1333 326.413 73.24L322.013 71.86C322.546 70.0333 323.559 68.5667 325.053 67.46C326.559 66.3533 328.586 65.8 331.133 65.8C333.053 65.8 334.739 66.1133 336.193 66.74C337.659 67.3667 338.746 68.3933 339.453 69.82C339.839 70.58 340.073 71.36 340.153 72.16C340.233 72.9467 340.273 73.8067 340.273 74.74V88H336.053V83.32L336.753 84.08C335.779 85.64 334.639 86.7867 333.333 87.52C332.039 88.24 330.419 88.6 328.473 88.6ZM329.433 84.76C330.526 84.76 331.459 84.5667 332.233 84.18C333.006 83.7933 333.619 83.32 334.073 82.76C334.539 82.2 334.853 81.6733 335.013 81.18C335.266 80.5667 335.406 79.8667 335.433 79.08C335.473 78.28 335.493 77.6333 335.493 77.14L336.973 77.58C335.519 77.8067 334.273 78.0067 333.233 78.18C332.193 78.3533 331.299 78.52 330.553 78.68C329.806 78.8267 329.146 78.9933 328.573 79.18C328.013 79.38 327.539 79.6133 327.153 79.88C326.766 80.1467 326.466 80.4533 326.253 80.8C326.053 81.1467 325.953 81.5533 325.953 82.02C325.953 82.5533 326.086 83.0267 326.353 83.44C326.619 83.84 327.006 84.16 327.513 84.4C328.033 84.64 328.673 84.76 329.433 84.76ZM358.14 88C356.713 88.2667 355.313 88.38 353.94 88.34C352.58 88.3133 351.36 88.0667 350.28 87.6C349.2 87.12 348.38 86.3667 347.82 85.34C347.326 84.4067 347.066 83.4533 347.04 82.48C347.013 81.5067 347 80.4067 347 79.18V60.4H351.8V78.9C351.8 79.7667 351.806 80.5267 351.82 81.18C351.846 81.8333 351.986 82.3667 352.24 82.78C352.72 83.58 353.486 84.0267 354.54 84.12C355.593 84.2133 356.793 84.16 358.14 83.96V88ZM343.08 70.18V66.4H358.14V70.18H343.08ZM371.511 88.6C369.324 88.6 367.404 88.1267 365.751 87.18C364.097 86.2333 362.804 84.92 361.871 83.24C360.951 81.56 360.491 79.6267 360.491 77.44C360.491 75.08 360.944 73.0333 361.851 71.3C362.757 69.5533 364.017 68.2 365.631 67.24C367.244 66.28 369.111 65.8 371.231 65.8C373.471 65.8 375.371 66.3267 376.931 67.38C378.504 68.42 379.671 69.8933 380.431 71.8C381.191 73.7067 381.477 75.9533 381.291 78.54H376.511V76.78C376.497 74.4333 376.084 72.72 375.271 71.64C374.457 70.56 373.177 70.02 371.431 70.02C369.457 70.02 367.991 70.6333 367.031 71.86C366.071 73.0733 365.591 74.8533 365.591 77.2C365.591 79.3867 366.071 81.08 367.031 82.28C367.991 83.48 369.391 84.08 371.231 84.08C372.417 84.08 373.437 83.82 374.291 83.3C375.157 82.7667 375.824 82 376.291 81L381.051 82.44C380.224 84.3867 378.944 85.9 377.211 86.98C375.491 88.06 373.591 88.6 371.511 88.6ZM364.071 78.54V74.9H378.931V78.54H364.071ZM404.421 88.6C402.314 88.6 400.414 88.2333 398.721 87.5C397.041 86.7667 395.654 85.72 394.561 84.36C393.481 82.9867 392.794 81.36 392.501 79.48L397.501 78.72C397.928 80.4267 398.801 81.7467 400.121 82.68C401.454 83.6133 402.988 84.08 404.721 84.08C405.748 84.08 406.714 83.92 407.621 83.6C408.528 83.28 409.261 82.8133 409.821 82.2C410.394 81.5867 410.681 80.8333 410.681 79.94C410.681 79.54 410.614 79.1733 410.481 78.84C410.348 78.4933 410.148 78.1867 409.881 77.92C409.628 77.6533 409.294 77.4133 408.881 77.2C408.481 76.9733 408.014 76.78 407.481 76.62L400.041 74.42C399.401 74.2333 398.708 73.9867 397.961 73.68C397.228 73.36 396.528 72.9267 395.861 72.38C395.208 71.82 394.668 71.1133 394.241 70.26C393.828 69.3933 393.621 68.3267 393.621 67.06C393.621 65.2067 394.088 63.6533 395.021 62.4C395.968 61.1333 397.234 60.1867 398.821 59.56C400.421 58.9333 402.194 58.6267 404.141 58.64C406.114 58.6533 407.874 58.9933 409.421 59.66C410.968 60.3133 412.261 61.2667 413.301 62.52C414.341 63.7733 415.074 65.2867 415.501 67.06L410.321 67.96C410.108 66.9467 409.694 66.0867 409.081 65.38C408.481 64.66 407.741 64.1133 406.861 63.74C405.994 63.3667 405.068 63.1667 404.081 63.14C403.121 63.1267 402.228 63.2733 401.401 63.58C400.588 63.8733 399.928 64.3 399.421 64.86C398.928 65.42 398.681 66.0733 398.681 66.82C398.681 67.5267 398.894 68.1067 399.321 68.56C399.748 69 400.274 69.3533 400.901 69.62C401.541 69.8733 402.188 70.0867 402.841 70.26L408.001 71.7C408.708 71.8867 409.501 72.14 410.381 72.46C411.261 72.78 412.108 73.2267 412.921 73.8C413.734 74.3733 414.401 75.1267 414.921 76.06C415.454 76.9933 415.721 78.18 415.721 79.62C415.721 81.1133 415.408 82.4267 414.781 83.56C414.168 84.68 413.334 85.6133 412.281 86.36C411.228 87.1067 410.021 87.6667 408.661 88.04C407.314 88.4133 405.901 88.6 404.421 88.6ZM429.59 88.6C427.43 88.6 425.543 88.1133 423.93 87.14C422.317 86.1667 421.063 84.8267 420.17 83.12C419.29 81.4 418.85 79.4267 418.85 77.2C418.85 74.9333 419.303 72.9467 420.21 71.24C421.117 69.5333 422.377 68.2 423.99 67.24C425.603 66.28 427.47 65.8 429.59 65.8C431.763 65.8 433.657 66.2867 435.27 67.26C436.883 68.2333 438.137 69.58 439.03 71.3C439.923 73.0067 440.37 74.9733 440.37 77.2C440.37 79.44 439.917 81.42 439.01 83.14C438.117 84.8467 436.863 86.1867 435.25 87.16C433.637 88.12 431.75 88.6 429.59 88.6ZM429.59 84.08C431.51 84.08 432.937 83.44 433.87 82.16C434.803 80.88 435.27 79.2267 435.27 77.2C435.27 75.1067 434.797 73.44 433.85 72.2C432.903 70.9467 431.483 70.32 429.59 70.32C428.297 70.32 427.23 70.6133 426.39 71.2C425.563 71.7733 424.95 72.58 424.55 73.62C424.15 74.6467 423.95 75.84 423.95 77.2C423.95 79.2933 424.423 80.9667 425.37 82.22C426.33 83.46 427.737 84.08 429.59 84.08ZM445.177 88V58.6H449.997V88H445.177ZM464.088 88.62C462.488 88.62 461.168 88.3533 460.128 87.82C459.088 87.2867 458.261 86.6067 457.648 85.78C457.034 84.9533 456.581 84.0733 456.288 83.14C455.994 82.2067 455.801 81.3267 455.708 80.5C455.628 79.66 455.588 78.98 455.588 78.46V66.4H460.468V76.8C460.468 77.4667 460.514 78.22 460.608 79.06C460.701 79.8867 460.914 80.6867 461.248 81.46C461.594 82.22 462.101 82.8467 462.768 83.34C463.448 83.8333 464.361 84.08 465.508 84.08C466.121 84.08 466.728 83.98 467.328 83.78C467.928 83.58 468.468 83.24 468.948 82.76C469.441 82.2667 469.834 81.5933 470.128 80.74C470.421 79.8867 470.568 78.8067 470.568 77.5L473.428 78.72C473.428 80.56 473.068 82.2267 472.348 83.72C471.641 85.2133 470.594 86.4067 469.208 87.3C467.821 88.18 466.114 88.62 464.088 88.62ZM471.148 88V81.3H470.568V66.4H475.408V88H471.148ZM493.687 88C492.26 88.2667 490.86 88.38 489.487 88.34C488.127 88.3133 486.907 88.0667 485.827 87.6C484.747 87.12 483.927 86.3667 483.367 85.34C482.873 84.4067 482.613 83.4533 482.587 82.48C482.56 81.5067 482.547 80.4067 482.547 79.18V60.4H487.347V78.9C487.347 79.7667 487.353 80.5267 487.367 81.18C487.393 81.8333 487.533 82.3667 487.787 82.78C488.267 83.58 489.033 84.0267 490.087 84.12C491.14 84.2133 492.34 84.16 493.687 83.96V88ZM478.627 70.18V66.4H493.687V70.18H478.627ZM498.731 63.12V58.7H503.551V63.12H498.731ZM498.731 88V66.4H503.551V88H498.731ZM519.082 88.6C516.922 88.6 515.036 88.1133 513.422 87.14C511.809 86.1667 510.556 84.8267 509.662 83.12C508.782 81.4 508.342 79.4267 508.342 77.2C508.342 74.9333 508.796 72.9467 509.702 71.24C510.609 69.5333 511.869 68.2 513.482 67.24C515.096 66.28 516.962 65.8 519.082 65.8C521.256 65.8 523.149 66.2867 524.762 67.26C526.376 68.2333 527.629 69.58 528.522 71.3C529.416 73.0067 529.862 74.9733 529.862 77.2C529.862 79.44 529.409 81.42 528.502 83.14C527.609 84.8467 526.356 86.1867 524.742 87.16C523.129 88.12 521.242 88.6 519.082 88.6ZM519.082 84.08C521.002 84.08 522.429 83.44 523.362 82.16C524.296 80.88 524.762 79.2267 524.762 77.2C524.762 75.1067 524.289 73.44 523.342 72.2C522.396 70.9467 520.976 70.32 519.082 70.32C517.789 70.32 516.722 70.6133 515.882 71.2C515.056 71.7733 514.442 72.58 514.042 73.62C513.642 74.6467 513.442 75.84 513.442 77.2C513.442 79.2933 513.916 80.9667 514.862 82.22C515.822 83.46 517.229 84.08 519.082 84.08ZM549.209 88V77.6C549.209 76.92 549.162 76.1667 549.069 75.34C548.975 74.5133 548.755 73.72 548.409 72.96C548.075 72.1867 547.569 71.5533 546.889 71.06C546.222 70.5667 545.315 70.32 544.169 70.32C543.555 70.32 542.949 70.42 542.349 70.62C541.749 70.82 541.202 71.1667 540.709 71.66C540.229 72.14 539.842 72.8067 539.549 73.66C539.255 74.5 539.109 75.58 539.109 76.9L536.249 75.68C536.249 73.84 536.602 72.1733 537.309 70.68C538.029 69.1867 539.082 68 540.469 67.12C541.855 66.2267 543.562 65.78 545.589 65.78C547.189 65.78 548.509 66.0467 549.549 66.58C550.589 67.1133 551.415 67.7933 552.029 68.62C552.642 69.4467 553.095 70.3267 553.389 71.26C553.682 72.1933 553.869 73.08 553.949 73.92C554.042 74.7467 554.089 75.42 554.089 75.94V88H549.209ZM534.229 88V66.4H538.529V73.1H539.109V88H534.229Z" fill="white"/>
<path d="M194.444 141V129.48H195.62V141H194.444ZM204.258 141V136.592C204.258 136.112 204.213 135.672 204.122 135.272C204.032 134.867 203.885 134.515 203.682 134.216C203.485 133.912 203.226 133.677 202.906 133.512C202.592 133.347 202.208 133.264 201.754 133.264C201.338 133.264 200.97 133.336 200.65 133.48C200.336 133.624 200.069 133.832 199.85 134.104C199.637 134.371 199.474 134.696 199.362 135.08C199.25 135.464 199.194 135.901 199.194 136.392L198.362 136.208C198.362 135.323 198.517 134.579 198.826 133.976C199.136 133.373 199.562 132.917 200.106 132.608C200.65 132.299 201.274 132.144 201.978 132.144C202.496 132.144 202.946 132.224 203.33 132.384C203.72 132.544 204.048 132.76 204.314 133.032C204.586 133.304 204.805 133.616 204.97 133.968C205.136 134.315 205.256 134.685 205.33 135.08C205.405 135.469 205.442 135.859 205.442 136.248V141H204.258ZM198.01 141V132.36H199.074V134.488H199.194V141H198.01ZM212.222 141C211.737 141.101 211.257 141.141 210.782 141.12C210.313 141.099 209.892 140.997 209.518 140.816C209.15 140.635 208.87 140.352 208.678 139.968C208.524 139.648 208.438 139.325 208.422 139C208.412 138.669 208.406 138.293 208.406 137.872V129.96H209.574V137.824C209.574 138.187 209.577 138.491 209.582 138.736C209.593 138.976 209.649 139.189 209.75 139.376C209.942 139.733 210.246 139.947 210.662 140.016C211.084 140.085 211.604 140.069 212.222 139.968V141ZM206.558 133.368V132.36H212.222V133.368H206.558ZM217.268 141.24C216.426 141.24 215.695 141.053 215.076 140.68C214.463 140.307 213.986 139.781 213.644 139.104C213.303 138.427 213.132 137.632 213.132 136.72C213.132 135.776 213.3 134.96 213.636 134.272C213.972 133.584 214.444 133.053 215.052 132.68C215.666 132.307 216.388 132.12 217.22 132.12C218.074 132.12 218.802 132.317 219.404 132.712C220.007 133.101 220.463 133.661 220.772 134.392C221.082 135.123 221.223 135.995 221.196 137.008H219.996V136.592C219.975 135.472 219.732 134.627 219.268 134.056C218.81 133.485 218.138 133.2 217.252 133.2C216.324 133.2 215.612 133.501 215.116 134.104C214.626 134.707 214.38 135.565 214.38 136.68C214.38 137.768 214.626 138.613 215.116 139.216C215.612 139.813 216.314 140.112 217.22 140.112C217.839 140.112 218.378 139.971 218.836 139.688C219.3 139.4 219.666 138.987 219.932 138.448L221.028 138.872C220.687 139.624 220.183 140.208 219.516 140.624C218.855 141.035 218.106 141.24 217.268 141.24ZM213.964 137.008V136.024H220.564V137.008H213.964ZM222.972 141V132.36H224.028V134.44L223.82 134.168C223.916 133.912 224.041 133.677 224.196 133.464C224.35 133.245 224.518 133.067 224.7 132.928C224.924 132.731 225.185 132.581 225.484 132.48C225.782 132.373 226.084 132.312 226.388 132.296C226.692 132.275 226.969 132.296 227.22 132.36V133.464C226.905 133.384 226.561 133.365 226.188 133.408C225.814 133.451 225.47 133.6 225.156 133.856C224.868 134.08 224.652 134.349 224.508 134.664C224.364 134.973 224.268 135.304 224.22 135.656C224.172 136.003 224.148 136.347 224.148 136.688V141H222.972ZM232.237 141.24C231.394 141.24 230.664 141.053 230.045 140.68C229.432 140.307 228.954 139.781 228.613 139.104C228.272 138.427 228.101 137.632 228.101 136.72C228.101 135.776 228.269 134.96 228.605 134.272C228.941 133.584 229.413 133.053 230.021 132.68C230.634 132.307 231.357 132.12 232.189 132.12C233.042 132.12 233.77 132.317 234.373 132.712C234.976 133.101 235.432 133.661 235.741 134.392C236.05 135.123 236.192 135.995 236.165 137.008H234.965V136.592C234.944 135.472 234.701 134.627 234.237 134.056C233.778 133.485 233.106 133.2 232.221 133.2C231.293 133.2 230.581 133.501 230.085 134.104C229.594 134.707 229.349 135.565 229.349 136.68C229.349 137.768 229.594 138.613 230.085 139.216C230.581 139.813 231.282 140.112 232.189 140.112C232.808 140.112 233.346 139.971 233.805 139.688C234.269 139.4 234.634 138.987 234.901 138.448L235.997 138.872C235.656 139.624 235.152 140.208 234.485 140.624C233.824 141.035 233.074 141.24 232.237 141.24ZM228.933 137.008V136.024H235.533V137.008H228.933ZM241.164 141.232C240.151 141.232 239.316 141.013 238.66 140.576C238.01 140.139 237.61 139.531 237.46 138.752L238.66 138.552C238.788 139.043 239.079 139.435 239.532 139.728C239.991 140.016 240.556 140.16 241.228 140.16C241.884 140.16 242.402 140.024 242.78 139.752C243.159 139.475 243.348 139.099 243.348 138.624C243.348 138.357 243.287 138.141 243.164 137.976C243.047 137.805 242.804 137.648 242.436 137.504C242.068 137.36 241.519 137.189 240.788 136.992C240.004 136.779 239.391 136.565 238.948 136.352C238.506 136.139 238.191 135.893 238.004 135.616C237.818 135.333 237.724 134.989 237.724 134.584C237.724 134.093 237.863 133.664 238.14 133.296C238.418 132.923 238.802 132.635 239.292 132.432C239.783 132.224 240.354 132.12 241.004 132.12C241.655 132.12 242.236 132.227 242.748 132.44C243.266 132.648 243.682 132.941 243.996 133.32C244.311 133.699 244.498 134.139 244.556 134.64L243.356 134.856C243.276 134.349 243.023 133.949 242.596 133.656C242.175 133.357 241.639 133.203 240.988 133.192C240.375 133.176 239.876 133.293 239.492 133.544C239.108 133.789 238.916 134.117 238.916 134.528C238.916 134.757 238.986 134.955 239.124 135.12C239.263 135.28 239.514 135.432 239.876 135.576C240.244 135.72 240.767 135.877 241.444 136.048C242.239 136.251 242.863 136.464 243.316 136.688C243.77 136.912 244.092 137.176 244.284 137.48C244.476 137.784 244.572 138.16 244.572 138.608C244.572 139.424 244.268 140.067 243.66 140.536C243.058 141 242.226 141.232 241.164 141.232ZM251.051 141C250.565 141.101 250.085 141.141 249.611 141.12C249.141 141.099 248.72 140.997 248.347 140.816C247.979 140.635 247.699 140.352 247.507 139.968C247.352 139.648 247.267 139.325 247.251 139C247.24 138.669 247.235 138.293 247.235 137.872V129.96H248.403V137.824C248.403 138.187 248.405 138.491 248.411 138.736C248.421 138.976 248.477 139.189 248.579 139.376C248.771 139.733 249.075 139.947 249.491 140.016C249.912 140.085 250.432 140.069 251.051 139.968V141ZM245.387 133.368V132.36H251.051V133.368H245.387ZM256.096 141.24C255.254 141.24 254.523 141.053 253.904 140.68C253.291 140.307 252.814 139.781 252.472 139.104C252.131 138.427 251.96 137.632 251.96 136.72C251.96 135.776 252.128 134.96 252.464 134.272C252.8 133.584 253.272 133.053 253.88 132.68C254.494 132.307 255.216 132.12 256.048 132.12C256.902 132.12 257.63 132.317 258.232 132.712C258.835 133.101 259.291 133.661 259.6 134.392C259.91 135.123 260.051 135.995 260.024 137.008H258.824V136.592C258.803 135.472 258.56 134.627 258.096 134.056C257.638 133.485 256.966 133.2 256.08 133.2C255.152 133.2 254.44 133.501 253.944 134.104C253.454 134.707 253.208 135.565 253.208 136.68C253.208 137.768 253.454 138.613 253.944 139.216C254.44 139.813 255.142 140.112 256.048 140.112C256.667 140.112 257.206 139.971 257.664 139.688C258.128 139.4 258.494 138.987 258.76 138.448L259.856 138.872C259.515 139.624 259.011 140.208 258.344 140.624C257.683 141.035 256.934 141.24 256.096 141.24ZM252.792 137.008V136.024H259.392V137.008H252.792ZM265.152 141.24C264.346 141.24 263.658 141.04 263.088 140.64C262.517 140.235 262.08 139.688 261.776 139C261.472 138.312 261.32 137.536 261.32 136.672C261.32 135.813 261.469 135.04 261.768 134.352C262.072 133.664 262.506 133.12 263.072 132.72C263.637 132.32 264.314 132.12 265.104 132.12C265.914 132.12 266.597 132.317 267.152 132.712C267.706 133.107 268.125 133.648 268.408 134.336C268.696 135.019 268.84 135.797 268.84 136.672C268.84 137.531 268.698 138.307 268.416 139C268.133 139.688 267.717 140.235 267.168 140.64C266.618 141.04 265.946 141.24 265.152 141.24ZM265.272 140.144C265.885 140.144 266.392 139.995 266.792 139.696C267.192 139.397 267.49 138.987 267.688 138.464C267.885 137.936 267.984 137.339 267.984 136.672C267.984 135.995 267.885 135.397 267.688 134.88C267.49 134.357 267.192 133.949 266.792 133.656C266.397 133.363 265.898 133.216 265.296 133.216C264.677 133.216 264.165 133.368 263.76 133.672C263.354 133.976 263.053 134.389 262.856 134.912C262.664 135.435 262.568 136.021 262.568 136.672C262.568 137.328 262.666 137.92 262.864 138.448C263.066 138.971 263.368 139.384 263.768 139.688C264.168 139.992 264.669 140.144 265.272 140.144ZM267.984 141V134.496H267.856V129.48H269.04V141H267.984ZM279.191 141C278.706 141.101 278.226 141.141 277.751 141.12C277.282 141.099 276.861 140.997 276.487 140.816C276.119 140.635 275.839 140.352 275.647 139.968C275.493 139.648 275.407 139.325 275.391 139C275.381 138.669 275.375 138.293 275.375 137.872V129.96H276.543V137.824C276.543 138.187 276.546 138.491 276.551 138.736C276.562 138.976 276.618 139.189 276.719 139.376C276.911 139.733 277.215 139.947 277.631 140.016C278.053 140.085 278.573 140.069 279.191 139.968V141ZM273.527 133.368V132.36H279.191V133.368H273.527ZM284.189 141.24C283.33 141.24 282.597 141.045 281.989 140.656C281.381 140.267 280.914 139.728 280.589 139.04C280.264 138.352 280.101 137.563 280.101 136.672C280.101 135.765 280.266 134.971 280.597 134.288C280.928 133.605 281.397 133.075 282.005 132.696C282.618 132.312 283.346 132.12 284.189 132.12C285.053 132.12 285.789 132.315 286.397 132.704C287.01 133.088 287.477 133.624 287.797 134.312C288.122 134.995 288.285 135.781 288.285 136.672C288.285 137.579 288.122 138.376 287.797 139.064C287.472 139.747 287.002 140.28 286.389 140.664C285.776 141.048 285.042 141.24 284.189 141.24ZM284.189 140.112C285.149 140.112 285.864 139.795 286.333 139.16C286.802 138.52 287.037 137.691 287.037 136.672C287.037 135.627 286.8 134.795 286.325 134.176C285.856 133.557 285.144 133.248 284.189 133.248C283.544 133.248 283.01 133.395 282.589 133.688C282.173 133.976 281.861 134.379 281.653 134.896C281.45 135.408 281.349 136 281.349 136.672C281.349 137.712 281.589 138.547 282.069 139.176C282.549 139.8 283.256 140.112 284.189 140.112ZM297.133 141.24C296.338 141.24 295.666 141.04 295.117 140.64C294.567 140.235 294.151 139.688 293.869 139C293.586 138.307 293.445 137.531 293.445 136.672C293.445 135.797 293.586 135.019 293.869 134.336C294.157 133.648 294.578 133.107 295.133 132.712C295.687 132.317 296.37 132.12 297.181 132.12C297.97 132.12 298.647 132.32 299.213 132.72C299.778 133.12 300.21 133.664 300.509 134.352C300.813 135.04 300.965 135.813 300.965 136.672C300.965 137.536 300.813 138.312 300.509 139C300.205 139.688 299.767 140.235 299.197 140.64C298.626 141.04 297.938 141.24 297.133 141.24ZM293.245 141V129.48H294.429V134.496H294.301V141H293.245ZM297.013 140.144C297.615 140.144 298.117 139.992 298.517 139.688C298.917 139.384 299.215 138.971 299.413 138.448C299.615 137.92 299.717 137.328 299.717 136.672C299.717 136.021 299.618 135.435 299.421 134.912C299.223 134.389 298.922 133.976 298.517 133.672C298.117 133.368 297.607 133.216 296.989 133.216C296.386 133.216 295.885 133.363 295.485 133.656C295.09 133.949 294.794 134.357 294.597 134.88C294.399 135.397 294.301 135.995 294.301 136.672C294.301 137.339 294.399 137.936 294.597 138.464C294.794 138.987 295.093 139.397 295.493 139.696C295.893 139.995 296.399 140.144 297.013 140.144ZM306.378 141.24C305.535 141.24 304.804 141.053 304.186 140.68C303.572 140.307 303.095 139.781 302.754 139.104C302.412 138.427 302.242 137.632 302.242 136.72C302.242 135.776 302.41 134.96 302.746 134.272C303.082 133.584 303.554 133.053 304.162 132.68C304.775 132.307 305.498 132.12 306.33 132.12C307.183 132.12 307.911 132.317 308.514 132.712C309.116 133.101 309.572 133.661 309.882 134.392C310.191 135.123 310.332 135.995 310.306 137.008H309.106V136.592C309.084 135.472 308.842 134.627 308.378 134.056C307.919 133.485 307.247 133.2 306.362 133.2C305.434 133.2 304.722 133.501 304.226 134.104C303.735 134.707 303.49 135.565 303.49 136.68C303.49 137.768 303.735 138.613 304.226 139.216C304.722 139.813 305.423 140.112 306.33 140.112C306.948 140.112 307.487 139.971 307.946 139.688C308.41 139.4 308.775 138.987 309.042 138.448L310.138 138.872C309.796 139.624 309.292 140.208 308.626 140.624C307.964 141.035 307.215 141.24 306.378 141.24ZM303.074 137.008V136.024H309.674V137.008H303.074ZM317.756 141.24C317.105 141.24 316.559 141.123 316.116 140.888C315.679 140.653 315.351 140.341 315.132 139.952C314.913 139.563 314.804 139.139 314.804 138.68C314.804 138.211 314.897 137.811 315.084 137.48C315.276 137.144 315.535 136.869 315.86 136.656C316.191 136.443 316.572 136.28 317.004 136.168C317.441 136.061 317.924 135.968 318.452 135.888C318.985 135.803 319.505 135.731 320.012 135.672C320.524 135.608 320.972 135.547 321.356 135.488L320.94 135.744C320.956 134.891 320.791 134.259 320.444 133.848C320.097 133.437 319.495 133.232 318.636 133.232C318.044 133.232 317.543 133.365 317.132 133.632C316.727 133.899 316.441 134.32 316.276 134.896L315.132 134.56C315.329 133.787 315.727 133.187 316.324 132.76C316.921 132.333 317.697 132.12 318.652 132.12C319.441 132.12 320.111 132.269 320.66 132.568C321.215 132.861 321.607 133.288 321.836 133.848C321.943 134.099 322.012 134.379 322.044 134.688C322.076 134.997 322.092 135.312 322.092 135.632V141H321.044V138.832L321.348 138.96C321.055 139.701 320.599 140.267 319.98 140.656C319.361 141.045 318.62 141.24 317.756 141.24ZM317.892 140.224C318.441 140.224 318.921 140.125 319.332 139.928C319.743 139.731 320.073 139.461 320.324 139.12C320.575 138.773 320.737 138.384 320.812 137.952C320.876 137.675 320.911 137.371 320.916 137.04C320.921 136.704 320.924 136.453 320.924 136.288L321.372 136.52C320.972 136.573 320.537 136.627 320.068 136.68C319.604 136.733 319.145 136.795 318.692 136.864C318.244 136.933 317.839 137.016 317.476 137.112C317.231 137.181 316.993 137.28 316.764 137.408C316.535 137.531 316.345 137.696 316.196 137.904C316.052 138.112 315.98 138.371 315.98 138.68C315.98 138.931 316.041 139.173 316.164 139.408C316.292 139.643 316.495 139.837 316.772 139.992C317.055 140.147 317.428 140.224 317.892 140.224ZM331.258 141.24C330.463 141.24 329.791 141.04 329.242 140.64C328.692 140.235 328.276 139.688 327.994 139C327.711 138.307 327.57 137.531 327.57 136.672C327.57 135.797 327.711 135.019 327.994 134.336C328.282 133.648 328.703 133.107 329.258 132.712C329.812 132.317 330.495 132.12 331.306 132.12C332.095 132.12 332.772 132.32 333.338 132.72C333.903 133.12 334.335 133.664 334.634 134.352C334.938 135.04 335.09 135.813 335.09 136.672C335.09 137.536 334.938 138.312 334.634 139C334.33 139.688 333.892 140.235 333.322 140.64C332.751 141.04 332.063 141.24 331.258 141.24ZM327.37 144.84V132.36H328.426V138.864H328.554V144.84H327.37ZM331.138 140.144C331.74 140.144 332.242 139.992 332.642 139.688C333.042 139.384 333.34 138.971 333.538 138.448C333.74 137.92 333.842 137.328 333.842 136.672C333.842 136.021 333.743 135.435 333.546 134.912C333.348 134.389 333.047 133.976 332.642 133.672C332.242 133.368 331.732 133.216 331.114 133.216C330.511 133.216 330.01 133.363 329.61 133.656C329.215 133.949 328.919 134.357 328.722 134.88C328.524 135.397 328.426 135.995 328.426 136.672C328.426 137.339 328.524 137.936 328.722 138.464C328.919 138.987 329.218 139.397 329.618 139.696C330.018 139.995 330.524 140.144 331.138 140.144ZM339.319 141.24C338.668 141.24 338.121 141.123 337.679 140.888C337.241 140.653 336.913 140.341 336.695 139.952C336.476 139.563 336.367 139.139 336.367 138.68C336.367 138.211 336.46 137.811 336.647 137.48C336.839 137.144 337.097 136.869 337.423 136.656C337.753 136.443 338.135 136.28 338.567 136.168C339.004 136.061 339.487 135.968 340.015 135.888C340.548 135.803 341.068 135.731 341.575 135.672C342.087 135.608 342.535 135.547 342.919 135.488L342.503 135.744C342.519 134.891 342.353 134.259 342.007 133.848C341.66 133.437 341.057 133.232 340.199 133.232C339.607 133.232 339.105 133.365 338.695 133.632C338.289 133.899 338.004 134.32 337.839 134.896L336.695 134.56C336.892 133.787 337.289 133.187 337.887 132.76C338.484 132.333 339.26 132.12 340.215 132.12C341.004 132.12 341.673 132.269 342.223 132.568C342.777 132.861 343.169 133.288 343.399 133.848C343.505 134.099 343.575 134.379 343.607 134.688C343.639 134.997 343.655 135.312 343.655 135.632V141H342.607V138.832L342.911 138.96C342.617 139.701 342.161 140.267 341.543 140.656C340.924 141.045 340.183 141.24 339.319 141.24ZM339.455 140.224C340.004 140.224 340.484 140.125 340.895 139.928C341.305 139.731 341.636 139.461 341.887 139.12C342.137 138.773 342.3 138.384 342.375 137.952C342.439 137.675 342.473 137.371 342.479 137.04C342.484 136.704 342.487 136.453 342.487 136.288L342.935 136.52C342.535 136.573 342.1 136.627 341.631 136.68C341.167 136.733 340.708 136.795 340.255 136.864C339.807 136.933 339.401 137.016 339.039 137.112C338.793 137.181 338.556 137.28 338.327 137.408C338.097 137.531 337.908 137.696 337.759 137.904C337.615 138.112 337.543 138.371 337.543 138.68C337.543 138.931 337.604 139.173 337.727 139.408C337.855 139.643 338.057 139.837 338.335 139.992C338.617 140.147 338.991 140.224 339.455 140.224ZM345.737 141V132.36H346.793V134.44L346.585 134.168C346.681 133.912 346.807 133.677 346.961 133.464C347.116 133.245 347.284 133.067 347.465 132.928C347.689 132.731 347.951 132.581 348.249 132.48C348.548 132.373 348.849 132.312 349.153 132.296C349.457 132.275 349.735 132.296 349.985 132.36V133.464C349.671 133.384 349.327 133.365 348.953 133.408C348.58 133.451 348.236 133.6 347.921 133.856C347.633 134.08 347.417 134.349 347.273 134.664C347.129 134.973 347.033 135.304 346.985 135.656C346.937 136.003 346.913 136.347 346.913 136.688V141H345.737ZM356.207 141C355.721 141.101 355.241 141.141 354.767 141.12C354.297 141.099 353.876 140.997 353.503 140.816C353.135 140.635 352.855 140.352 352.663 139.968C352.508 139.648 352.423 139.325 352.407 139C352.396 138.669 352.391 138.293 352.391 137.872V129.96H353.559V137.824C353.559 138.187 353.561 138.491 353.567 138.736C353.577 138.976 353.633 139.189 353.735 139.376C353.927 139.733 354.231 139.947 354.647 140.016C355.068 140.085 355.588 140.069 356.207 139.968V141ZM350.543 133.368V132.36H356.207V133.368H350.543ZM364.72 141.24C363.862 141.24 363.128 141.045 362.52 140.656C361.912 140.267 361.446 139.728 361.12 139.04C360.795 138.352 360.632 137.563 360.632 136.672C360.632 135.765 360.798 134.971 361.128 134.288C361.459 133.605 361.928 133.075 362.536 132.696C363.15 132.312 363.878 132.12 364.72 132.12C365.584 132.12 366.32 132.315 366.928 132.704C367.542 133.088 368.008 133.624 368.328 134.312C368.654 134.995 368.816 135.781 368.816 136.672C368.816 137.579 368.654 138.376 368.328 139.064C368.003 139.747 367.534 140.28 366.92 140.664C366.307 141.048 365.574 141.24 364.72 141.24ZM364.72 140.112C365.68 140.112 366.395 139.795 366.864 139.16C367.334 138.52 367.568 137.691 367.568 136.672C367.568 135.627 367.331 134.795 366.856 134.176C366.387 133.557 365.675 133.248 364.72 133.248C364.075 133.248 363.542 133.395 363.12 133.688C362.704 133.976 362.392 134.379 362.184 134.896C361.982 135.408 361.88 136 361.88 136.672C361.88 137.712 362.12 138.547 362.6 139.176C363.08 139.8 363.787 140.112 364.72 140.112ZM371.437 141V131.72C371.437 131.496 371.448 131.275 371.469 131.056C371.496 130.837 371.546 130.629 371.621 130.432C371.696 130.229 371.813 130.043 371.973 129.872C372.149 129.68 372.341 129.541 372.549 129.456C372.757 129.365 372.973 129.307 373.197 129.28C373.426 129.253 373.65 129.24 373.869 129.24H374.973V130.232H373.949C373.501 130.232 373.165 130.341 372.941 130.56C372.722 130.779 372.613 131.123 372.613 131.592V141H371.437ZM369.941 133.368V132.36H374.973V133.368H369.941ZM384.16 141C383.675 141.101 383.195 141.141 382.72 141.12C382.251 141.099 381.829 140.997 381.456 140.816C381.088 140.635 380.808 140.352 380.616 139.968C380.461 139.648 380.376 139.325 380.36 139C380.349 138.669 380.344 138.293 380.344 137.872V129.96H381.512V137.824C381.512 138.187 381.515 138.491 381.52 138.736C381.531 138.976 381.587 139.189 381.688 139.376C381.88 139.733 382.184 139.947 382.6 140.016C383.021 140.085 383.541 140.069 384.16 139.968V141ZM378.496 133.368V132.36H384.16V133.368H378.496ZM392.102 141V136.592C392.102 136.112 392.057 135.672 391.966 135.272C391.876 134.867 391.729 134.515 391.526 134.216C391.329 133.912 391.07 133.677 390.75 133.512C390.436 133.347 390.052 133.264 389.598 133.264C389.182 133.264 388.814 133.336 388.494 133.48C388.18 133.624 387.913 133.832 387.694 134.104C387.481 134.371 387.318 134.696 387.206 135.08C387.094 135.464 387.038 135.901 387.038 136.392L386.206 136.208C386.206 135.323 386.361 134.579 386.67 133.976C386.98 133.373 387.406 132.917 387.95 132.608C388.494 132.299 389.118 132.144 389.822 132.144C390.34 132.144 390.79 132.224 391.174 132.384C391.564 132.544 391.892 132.76 392.158 133.032C392.43 133.304 392.649 133.616 392.814 133.968C392.98 134.315 393.1 134.685 393.174 135.08C393.249 135.469 393.286 135.859 393.286 136.248V141H392.102ZM385.854 141V129.48H386.918V135.984H387.038V141H385.854ZM399.018 141.24C398.176 141.24 397.445 141.053 396.826 140.68C396.213 140.307 395.736 139.781 395.394 139.104C395.053 138.427 394.882 137.632 394.882 136.72C394.882 135.776 395.05 134.96 395.386 134.272C395.722 133.584 396.194 133.053 396.802 132.68C397.416 132.307 398.138 132.12 398.97 132.12C399.824 132.12 400.552 132.317 401.154 132.712C401.757 133.101 402.213 133.661 402.522 134.392C402.832 135.123 402.973 135.995 402.946 137.008H401.746V136.592C401.725 135.472 401.482 134.627 401.018 134.056C400.56 133.485 399.888 133.2 399.002 133.2C398.074 133.2 397.362 133.501 396.866 134.104C396.376 134.707 396.13 135.565 396.13 136.68C396.13 137.768 396.376 138.613 396.866 139.216C397.362 139.813 398.064 140.112 398.97 140.112C399.589 140.112 400.128 139.971 400.586 139.688C401.05 139.4 401.416 138.987 401.682 138.448L402.778 138.872C402.437 139.624 401.933 140.208 401.266 140.624C400.605 141.035 399.856 141.24 399.018 141.24ZM395.714 137.008V136.024H402.314V137.008H395.714ZM411.805 141.24C411.01 141.24 410.338 141.04 409.789 140.64C409.239 140.235 408.823 139.688 408.541 139C408.258 138.307 408.117 137.531 408.117 136.672C408.117 135.797 408.258 135.019 408.541 134.336C408.829 133.648 409.25 133.107 409.805 132.712C410.359 132.317 411.042 132.12 411.853 132.12C412.642 132.12 413.319 132.32 413.885 132.72C414.45 133.12 414.882 133.664 415.181 134.352C415.485 135.04 415.637 135.813 415.637 136.672C415.637 137.536 415.485 138.312 415.181 139C414.877 139.688 414.439 140.235 413.869 140.64C413.298 141.04 412.61 141.24 411.805 141.24ZM407.917 144.84V132.36H408.973V138.864H409.101V144.84H407.917ZM411.685 140.144C412.287 140.144 412.789 139.992 413.189 139.688C413.589 139.384 413.887 138.971 414.085 138.448C414.287 137.92 414.389 137.328 414.389 136.672C414.389 136.021 414.29 135.435 414.093 134.912C413.895 134.389 413.594 133.976 413.189 133.672C412.789 133.368 412.279 133.216 411.661 133.216C411.058 133.216 410.557 133.363 410.157 133.656C409.762 133.949 409.466 134.357 409.269 134.88C409.071 135.397 408.973 135.995 408.973 136.672C408.973 137.339 409.071 137.936 409.269 138.464C409.466 138.987 409.765 139.397 410.165 139.696C410.565 139.995 411.071 140.144 411.685 140.144ZM417.553 141V129.24H418.729V141H417.553ZM423.6 141.24C422.949 141.24 422.402 141.123 421.96 140.888C421.522 140.653 421.194 140.341 420.976 139.952C420.757 139.563 420.648 139.139 420.648 138.68C420.648 138.211 420.741 137.811 420.928 137.48C421.12 137.144 421.378 136.869 421.704 136.656C422.034 136.443 422.416 136.28 422.848 136.168C423.285 136.061 423.768 135.968 424.296 135.888C424.829 135.803 425.349 135.731 425.856 135.672C426.368 135.608 426.816 135.547 427.2 135.488L426.784 135.744C426.8 134.891 426.634 134.259 426.288 133.848C425.941 133.437 425.338 133.232 424.48 133.232C423.888 133.232 423.386 133.365 422.976 133.632C422.57 133.899 422.285 134.32 422.12 134.896L420.976 134.56C421.173 133.787 421.57 133.187 422.168 132.76C422.765 132.333 423.541 132.12 424.496 132.12C425.285 132.12 425.954 132.269 426.504 132.568C427.058 132.861 427.45 133.288 427.68 133.848C427.786 134.099 427.856 134.379 427.888 134.688C427.92 134.997 427.936 135.312 427.936 135.632V141H426.888V138.832L427.192 138.96C426.898 139.701 426.442 140.267 425.824 140.656C425.205 141.045 424.464 141.24 423.6 141.24ZM423.736 140.224C424.285 140.224 424.765 140.125 425.176 139.928C425.586 139.731 425.917 139.461 426.168 139.12C426.418 138.773 426.581 138.384 426.656 137.952C426.72 137.675 426.754 137.371 426.76 137.04C426.765 136.704 426.768 136.453 426.768 136.288L427.216 136.52C426.816 136.573 426.381 136.627 425.912 136.68C425.448 136.733 424.989 136.795 424.536 136.864C424.088 136.933 423.682 137.016 423.32 137.112C423.074 137.181 422.837 137.28 422.608 137.408C422.378 137.531 422.189 137.696 422.04 137.904C421.896 138.112 421.824 138.371 421.824 138.68C421.824 138.931 421.885 139.173 422.008 139.408C422.136 139.643 422.338 139.837 422.616 139.992C422.898 140.147 423.272 140.224 423.736 140.224ZM434.722 141C434.237 141.101 433.757 141.141 433.282 141.12C432.813 141.099 432.392 140.997 432.018 140.816C431.65 140.635 431.37 140.352 431.178 139.968C431.024 139.648 430.938 139.325 430.922 139C430.912 138.669 430.906 138.293 430.906 137.872V129.96H432.074V137.824C432.074 138.187 432.077 138.491 432.082 138.736C432.093 138.976 432.149 139.189 432.25 139.376C432.442 139.733 432.746 139.947 433.162 140.016C433.584 140.085 434.104 140.069 434.722 139.968V141ZM429.058 133.368V132.36H434.722V133.368H429.058ZM437.281 141V131.72C437.281 131.496 437.291 131.275 437.313 131.056C437.339 130.837 437.39 130.629 437.465 130.432C437.539 130.229 437.657 130.043 437.817 129.872C437.993 129.68 438.185 129.541 438.393 129.456C438.601 129.365 438.817 129.307 439.041 129.28C439.27 129.253 439.494 129.24 439.713 129.24H440.817V130.232H439.793C439.345 130.232 439.009 130.341 438.785 130.56C438.566 130.779 438.457 131.123 438.457 131.592V141H437.281ZM435.785 133.368V132.36H440.817V133.368H435.785ZM445.392 141.24C444.533 141.24 443.8 141.045 443.192 140.656C442.584 140.267 442.117 139.728 441.792 139.04C441.467 138.352 441.304 137.563 441.304 136.672C441.304 135.765 441.469 134.971 441.8 134.288C442.131 133.605 442.6 133.075 443.208 132.696C443.821 132.312 444.549 132.12 445.392 132.12C446.256 132.12 446.992 132.315 447.6 132.704C448.213 133.088 448.68 133.624 449 134.312C449.325 134.995 449.488 135.781 449.488 136.672C449.488 137.579 449.325 138.376 449 139.064C448.675 139.747 448.205 140.28 447.592 140.664C446.979 141.048 446.245 141.24 445.392 141.24ZM445.392 140.112C446.352 140.112 447.067 139.795 447.536 139.16C448.005 138.52 448.24 137.691 448.24 136.672C448.24 135.627 448.003 134.795 447.528 134.176C447.059 133.557 446.347 133.248 445.392 133.248C444.747 133.248 444.213 133.395 443.792 133.688C443.376 133.976 443.064 134.379 442.856 134.896C442.653 135.408 442.552 136 442.552 136.672C442.552 137.712 442.792 138.547 443.272 139.176C443.752 139.8 444.459 140.112 445.392 140.112ZM451.253 141V132.36H452.309V134.44L452.101 134.168C452.197 133.912 452.322 133.677 452.477 133.464C452.631 133.245 452.799 133.067 452.981 132.928C453.205 132.731 453.466 132.581 453.765 132.48C454.063 132.373 454.365 132.312 454.669 132.296C454.973 132.275 455.25 132.296 455.501 132.36V133.464C455.186 133.384 454.842 133.365 454.469 133.408C454.095 133.451 453.751 133.6 453.437 133.856C453.149 134.08 452.933 134.349 452.789 134.664C452.645 134.973 452.549 135.304 452.501 135.656C452.453 136.003 452.429 136.347 452.429 136.688V141H451.253ZM467.322 141L467.33 135.328C467.33 134.661 467.144 134.139 466.77 133.76C466.402 133.376 465.933 133.184 465.362 133.184C465.037 133.184 464.72 133.259 464.41 133.408C464.101 133.557 463.845 133.797 463.642 134.128C463.445 134.459 463.346 134.891 463.346 135.424L462.65 135.224C462.634 134.605 462.754 134.064 463.01 133.6C463.272 133.136 463.629 132.776 464.082 132.52C464.541 132.259 465.058 132.128 465.634 132.128C466.504 132.128 467.2 132.397 467.722 132.936C468.245 133.469 468.506 134.192 468.506 135.104L468.498 141H467.322ZM457.01 141V132.36H458.066V134.488H458.194V141H457.01ZM462.178 141L462.186 135.408C462.186 134.72 462.002 134.179 461.634 133.784C461.272 133.384 460.792 133.184 460.194 133.184C459.597 133.184 459.114 133.389 458.746 133.8C458.378 134.205 458.194 134.747 458.194 135.424L457.49 135.04C457.49 134.485 457.621 133.989 457.882 133.552C458.144 133.109 458.501 132.763 458.954 132.512C459.408 132.256 459.922 132.128 460.498 132.128C461.048 132.128 461.536 132.245 461.962 132.48C462.394 132.715 462.733 133.056 462.978 133.504C463.224 133.952 463.346 134.496 463.346 135.136L463.338 141H462.178ZM472.837 137.856C472.837 137.44 472.856 137.075 472.893 136.76C472.936 136.44 473.042 136.12 473.213 135.8C473.373 135.496 473.57 135.245 473.805 135.048C474.04 134.845 474.285 134.656 474.541 134.48C474.797 134.299 475.04 134.085 475.269 133.84C475.477 133.6 475.616 133.357 475.685 133.112C475.754 132.867 475.789 132.608 475.789 132.336C475.789 132.064 475.754 131.821 475.685 131.608C475.621 131.395 475.52 131.211 475.381 131.056C475.168 130.795 474.906 130.616 474.597 130.52C474.288 130.424 473.965 130.376 473.629 130.376C473.298 130.376 472.989 130.424 472.701 130.52C472.418 130.611 472.184 130.752 471.997 130.944C471.816 131.115 471.682 131.32 471.597 131.56C471.517 131.8 471.477 132.053 471.477 132.32H470.261C470.282 131.899 470.373 131.488 470.533 131.088C470.698 130.683 470.938 130.344 471.253 130.072C471.568 129.784 471.933 129.576 472.349 129.448C472.77 129.315 473.194 129.248 473.621 129.248C474.144 129.248 474.64 129.328 475.109 129.488C475.578 129.643 475.973 129.904 476.293 130.272C476.549 130.544 476.736 130.856 476.853 131.208C476.976 131.555 477.037 131.925 477.037 132.32C477.037 132.763 476.954 133.179 476.789 133.568C476.624 133.957 476.392 134.304 476.093 134.608C475.912 134.805 475.706 134.989 475.477 135.16C475.248 135.325 475.026 135.499 474.813 135.68C474.605 135.856 474.445 136.048 474.333 136.256C474.194 136.512 474.117 136.755 474.101 136.984C474.09 137.213 474.085 137.504 474.085 137.856H472.837ZM472.845 141V139.432H474.085V141H472.845Z" fill="white"/>
<g filter="url(#filter0_d_5_14553)">
<rect x="253" y="206" width="171" height="60" rx="10" fill="white"/>
<path d="M299.372 242.24C298.22 242.24 297.234 241.989 296.412 241.488C295.591 240.981 294.959 240.277 294.516 239.376C294.079 238.475 293.86 237.429 293.86 236.24C293.86 235.051 294.079 234.005 294.516 233.104C294.959 232.203 295.591 231.501 296.412 231C297.234 230.493 298.22 230.24 299.372 230.24C300.7 230.24 301.807 230.573 302.692 231.24C303.578 231.901 304.199 232.795 304.556 233.92L302.612 234.456C302.388 233.704 302.007 233.117 301.468 232.696C300.93 232.269 300.231 232.056 299.372 232.056C298.599 232.056 297.954 232.229 297.436 232.576C296.924 232.923 296.538 233.411 296.276 234.04C296.02 234.664 295.89 235.397 295.884 236.24C295.884 237.083 296.012 237.819 296.268 238.448C296.53 239.072 296.919 239.557 297.436 239.904C297.954 240.251 298.599 240.424 299.372 240.424C300.231 240.424 300.93 240.211 301.468 239.784C302.007 239.357 302.388 238.771 302.612 238.024L304.556 238.56C304.199 239.685 303.578 240.581 302.692 241.248C301.807 241.909 300.7 242.24 299.372 242.24ZM310.449 242.24C309.585 242.24 308.83 242.045 308.185 241.656C307.539 241.267 307.038 240.731 306.681 240.048C306.329 239.36 306.153 238.571 306.153 237.68C306.153 236.773 306.334 235.979 306.697 235.296C307.059 234.613 307.563 234.08 308.209 233.696C308.854 233.312 309.601 233.12 310.449 233.12C311.318 233.12 312.075 233.315 312.721 233.704C313.366 234.093 313.867 234.632 314.225 235.32C314.582 236.003 314.761 236.789 314.761 237.68C314.761 238.576 314.579 239.368 314.217 240.056C313.859 240.739 313.358 241.275 312.713 241.664C312.067 242.048 311.313 242.24 310.449 242.24ZM310.449 240.432C311.217 240.432 311.787 240.176 312.161 239.664C312.534 239.152 312.721 238.491 312.721 237.68C312.721 236.843 312.531 236.176 312.153 235.68C311.774 235.179 311.206 234.928 310.449 234.928C309.931 234.928 309.505 235.045 309.169 235.28C308.838 235.509 308.593 235.832 308.433 236.248C308.273 236.659 308.193 237.136 308.193 237.68C308.193 238.517 308.382 239.187 308.761 239.688C309.145 240.184 309.707 240.432 310.449 240.432ZM322.819 242V237.84C322.819 237.568 322.801 237.267 322.763 236.936C322.726 236.605 322.638 236.288 322.499 235.984C322.366 235.675 322.163 235.421 321.891 235.224C321.625 235.027 321.262 234.928 320.803 234.928C320.558 234.928 320.315 234.968 320.075 235.048C319.835 235.128 319.617 235.267 319.419 235.464C319.227 235.656 319.073 235.923 318.955 236.264C318.838 236.6 318.779 237.032 318.779 237.56L317.635 237.072C317.635 236.336 317.777 235.669 318.059 235.072C318.347 234.475 318.769 234 319.323 233.648C319.878 233.291 320.561 233.112 321.371 233.112C322.011 233.112 322.539 233.219 322.955 233.432C323.371 233.645 323.702 233.917 323.947 234.248C324.193 234.579 324.374 234.931 324.491 235.304C324.609 235.677 324.683 236.032 324.715 236.368C324.753 236.699 324.771 236.968 324.771 237.176V242H322.819ZM316.827 242V233.36H318.547V236.04H318.779V242H316.827ZM332.243 242C331.672 242.107 331.112 242.152 330.563 242.136C330.019 242.125 329.531 242.027 329.099 241.84C328.667 241.648 328.339 241.347 328.115 240.936C327.918 240.563 327.814 240.181 327.803 239.792C327.792 239.403 327.787 238.963 327.787 238.472V230.96H329.707V238.36C329.707 238.707 329.71 239.011 329.715 239.272C329.726 239.533 329.782 239.747 329.883 239.912C330.075 240.232 330.382 240.411 330.803 240.448C331.224 240.485 331.704 240.464 332.243 240.384V242ZM326.219 234.872V233.36H332.243V234.872H326.219ZM336.837 242.24C336.213 242.24 335.685 242.123 335.253 241.888C334.821 241.648 334.493 241.331 334.269 240.936C334.05 240.541 333.941 240.107 333.941 239.632C333.941 239.216 334.01 238.843 334.149 238.512C334.288 238.176 334.501 237.888 334.789 237.648C335.077 237.403 335.45 237.203 335.909 237.048C336.256 236.936 336.661 236.835 337.125 236.744C337.594 236.653 338.101 236.571 338.645 236.496C339.194 236.416 339.768 236.331 340.365 236.24L339.677 236.632C339.682 236.035 339.549 235.595 339.277 235.312C339.005 235.029 338.546 234.888 337.901 234.888C337.512 234.888 337.136 234.979 336.773 235.16C336.41 235.341 336.157 235.653 336.013 236.096L334.253 235.544C334.466 234.813 334.872 234.227 335.469 233.784C336.072 233.341 336.882 233.12 337.901 233.12C338.669 233.12 339.344 233.245 339.925 233.496C340.512 233.747 340.946 234.157 341.229 234.728C341.384 235.032 341.477 235.344 341.509 235.664C341.541 235.979 341.557 236.323 341.557 236.696V242H339.869V240.128L340.149 240.432C339.76 241.056 339.304 241.515 338.781 241.808C338.264 242.096 337.616 242.24 336.837 242.24ZM337.221 240.704C337.658 240.704 338.032 240.627 338.341 240.472C338.65 240.317 338.896 240.128 339.077 239.904C339.264 239.68 339.389 239.469 339.453 239.272C339.554 239.027 339.61 238.747 339.621 238.432C339.637 238.112 339.645 237.853 339.645 237.656L340.237 237.832C339.656 237.923 339.157 238.003 338.741 238.072C338.325 238.141 337.968 238.208 337.669 238.272C337.37 238.331 337.106 238.397 336.877 238.472C336.653 238.552 336.464 238.645 336.309 238.752C336.154 238.859 336.034 238.981 335.949 239.12C335.869 239.259 335.829 239.421 335.829 239.608C335.829 239.821 335.882 240.011 335.989 240.176C336.096 240.336 336.25 240.464 336.453 240.56C336.661 240.656 336.917 240.704 337.221 240.704ZM347.712 242.24C346.821 242.24 346.061 242.043 345.432 241.648C344.802 241.248 344.32 240.704 343.984 240.016C343.653 239.328 343.485 238.549 343.48 237.68C343.485 236.795 343.658 236.011 344 235.328C344.346 234.64 344.837 234.101 345.472 233.712C346.106 233.317 346.861 233.12 347.736 233.12C348.717 233.12 349.546 233.368 350.224 233.864C350.906 234.355 351.352 235.027 351.56 235.88L349.64 236.4C349.49 235.936 349.242 235.576 348.896 235.32C348.549 235.059 348.154 234.928 347.712 234.928C347.21 234.928 346.797 235.048 346.472 235.288C346.146 235.523 345.906 235.848 345.752 236.264C345.597 236.68 345.52 237.152 345.52 237.68C345.52 238.501 345.704 239.165 346.072 239.672C346.44 240.179 346.986 240.432 347.712 240.432C348.224 240.432 348.626 240.315 348.92 240.08C349.218 239.845 349.442 239.507 349.592 239.064L351.56 239.504C351.293 240.384 350.826 241.061 350.16 241.536C349.493 242.005 348.677 242.24 347.712 242.24ZM358.547 242C357.976 242.107 357.416 242.152 356.867 242.136C356.323 242.125 355.835 242.027 355.403 241.84C354.971 241.648 354.643 241.347 354.419 240.936C354.221 240.563 354.117 240.181 354.107 239.792C354.096 239.403 354.091 238.963 354.091 238.472V230.96H356.011V238.36C356.011 238.707 356.013 239.011 356.019 239.272C356.029 239.533 356.085 239.747 356.187 239.912C356.379 240.232 356.685 240.411 357.107 240.448C357.528 240.485 358.008 240.464 358.547 240.384V242ZM352.523 234.872V233.36H358.547V234.872H352.523ZM368.888 242.24C367.97 242.24 367.162 242.053 366.464 241.68C365.77 241.307 365.226 240.781 364.832 240.104C364.442 239.427 364.248 238.632 364.248 237.72V230.496L366.2 230.48V237.672C366.2 238.104 366.272 238.491 366.416 238.832C366.565 239.173 366.765 239.464 367.016 239.704C367.266 239.939 367.554 240.117 367.88 240.24C368.205 240.363 368.541 240.424 368.888 240.424C369.245 240.424 369.584 240.363 369.904 240.24C370.229 240.112 370.517 239.931 370.768 239.696C371.018 239.456 371.216 239.165 371.36 238.824C371.504 238.483 371.576 238.099 371.576 237.672V230.48H373.528V237.72C373.528 238.632 373.33 239.427 372.936 240.104C372.546 240.781 372.002 241.307 371.304 241.68C370.61 242.053 369.805 242.24 368.888 242.24ZM379.419 242.24C378.353 242.24 377.486 242 376.819 241.52C376.153 241.04 375.747 240.365 375.603 239.496L377.571 239.192C377.673 239.619 377.897 239.955 378.243 240.2C378.59 240.445 379.027 240.568 379.555 240.568C380.019 240.568 380.377 240.477 380.627 240.296C380.883 240.109 381.011 239.856 381.011 239.536C381.011 239.339 380.963 239.181 380.867 239.064C380.777 238.941 380.574 238.824 380.259 238.712C379.945 238.6 379.462 238.459 378.811 238.288C378.086 238.096 377.51 237.891 377.083 237.672C376.657 237.448 376.35 237.184 376.163 236.88C375.977 236.576 375.883 236.208 375.883 235.776C375.883 235.237 376.025 234.768 376.307 234.368C376.59 233.968 376.985 233.661 377.491 233.448C377.998 233.229 378.595 233.12 379.283 233.12C379.955 233.12 380.55 233.224 381.067 233.432C381.59 233.64 382.011 233.936 382.331 234.32C382.651 234.704 382.849 235.155 382.923 235.672L380.955 236.024C380.907 235.656 380.739 235.365 380.451 235.152C380.169 234.939 379.79 234.819 379.315 234.792C378.862 234.765 378.497 234.835 378.219 235C377.942 235.16 377.803 235.387 377.803 235.68C377.803 235.845 377.859 235.987 377.971 236.104C378.083 236.221 378.307 236.339 378.643 236.456C378.985 236.573 379.491 236.717 380.163 236.888C380.851 237.064 381.401 237.267 381.811 237.496C382.227 237.72 382.526 237.989 382.707 238.304C382.894 238.619 382.987 239 382.987 239.448C382.987 240.317 382.67 241 382.035 241.496C381.406 241.992 380.534 242.24 379.419 242.24Z" fill="#1D2130"/>
</g>
</g>
<defs>
<filter id="filter0_d_5_14553" x="249" y="204" width="179" height="68" filterUnits="userSpaceOnUse" color-interpolation-filters="sRGB">
<feFlood flood-opacity="0" result="BackgroundImageFix"/>
<feColorMatrix in="SourceAlpha" type="matrix" values="0 0 0 0 0 0 0 0 0 0 0 0 0 0 0 0 0 0 127 0" result="hardAlpha"/>
<feOffset dy="2"/>
<feGaussianBlur stdDeviation="2"/>
<feComposite in2="hardAlpha" operator="out"/>
<feColorMatrix type="matrix" values="0 0 0 0 0 0 0 0 0 0 0 0 0 0 0 0 0 0 0.07 0"/>
<feBlend mode="normal" in2="BackgroundImageFix" result="effect1_dropShadow_5_14553"/>
<feBlend mode="normal" in="SourceGraphic" in2="effect1_dropShadow_5_14553" result="shape"/>
</filter>
<clipPath id="clip0_5_14553">
<rect width="672" height="314" rx="16" fill="white"/>
</clipPath>
</defs>
</svg>
