<svg width="1280" height="322" viewBox="0 0 1280 322" fill="none" xmlns="http://www.w3.org/2000/svg">
<g clip-path="url(#clip0_5_378)">
<rect width="1280" height="322" rx="16" fill="#2752E7"/>
<circle opacity="0.2" cx="599.5" cy="544.5" r="460.5" fill="#6188DD"/>
<circle cx="10.5" cy="-3" r="116.5" fill="#406EEC"/>
<circle cx="1261.5" cy="161.5" r="116.5" fill="#406EEC"/>
<path d="M378.751 104V69.44H399.559V75.224H384.535V83.84H396.679V89.6H384.535V104H378.751ZM414.621 104.72C412.029 104.72 409.765 104.136 407.829 102.968C405.893 101.8 404.389 100.192 403.317 98.144C402.261 96.08 401.733 93.712 401.733 91.04C401.733 88.32 402.277 85.936 403.365 83.888C404.453 81.84 405.965 80.24 407.901 79.088C409.837 77.936 412.077 77.36 414.621 77.36C417.229 77.36 419.501 77.944 421.437 79.112C423.373 80.28 424.877 81.896 425.949 83.96C427.021 86.008 427.557 88.368 427.557 91.04C427.557 93.728 427.013 96.104 425.925 98.168C424.853 100.216 423.349 101.824 421.413 102.992C419.477 104.144 417.213 104.72 414.621 104.72ZM414.621 99.296C416.925 99.296 418.637 98.528 419.757 96.992C420.877 95.456 421.437 93.472 421.437 91.04C421.437 88.528 420.869 86.528 419.733 85.04C418.597 83.536 416.893 82.784 414.621 82.784C413.069 82.784 411.789 83.136 410.781 83.84C409.789 84.528 409.053 85.496 408.573 86.744C408.093 87.976 407.853 89.408 407.853 91.04C407.853 93.552 408.421 95.56 409.557 97.064C410.709 98.552 412.397 99.296 414.621 99.296ZM432.844 104V78.08H437.956V84.392L437.332 83.576C437.652 82.712 438.076 81.928 438.604 81.224C439.148 80.504 439.796 79.912 440.548 79.448C441.188 79.016 441.892 78.68 442.66 78.44C443.444 78.184 444.244 78.032 445.06 77.984C445.876 77.92 446.668 77.952 447.436 78.08V83.48C446.668 83.256 445.78 83.184 444.772 83.264C443.78 83.344 442.884 83.624 442.084 84.104C441.284 84.536 440.628 85.088 440.116 85.76C439.62 86.432 439.252 87.2 439.012 88.064C438.772 88.912 438.652 89.832 438.652 90.824V104H432.844ZM476.242 104.72C472.786 104.72 469.826 103.968 467.362 102.464C464.898 100.944 463.002 98.832 461.674 96.128C460.362 93.424 459.706 90.288 459.706 86.72C459.706 83.152 460.362 80.016 461.674 77.312C463.002 74.608 464.898 72.504 467.362 71C469.826 69.48 472.786 68.72 476.242 68.72C480.226 68.72 483.546 69.72 486.202 71.72C488.858 73.704 490.722 76.384 491.794 79.76L485.962 81.368C485.29 79.112 484.146 77.352 482.53 76.088C480.914 74.808 478.818 74.168 476.242 74.168C473.922 74.168 471.986 74.688 470.434 75.728C468.898 76.768 467.738 78.232 466.954 80.12C466.186 81.992 465.794 84.192 465.778 86.72C465.778 89.248 466.162 91.456 466.93 93.344C467.714 95.216 468.882 96.672 470.434 97.712C471.986 98.752 473.922 99.272 476.242 99.272C478.818 99.272 480.914 98.632 482.53 97.352C484.146 96.072 485.29 94.312 485.962 92.072L491.794 93.68C490.722 97.056 488.858 99.744 486.202 101.744C483.546 103.728 480.226 104.72 476.242 104.72ZM508.511 104.72C505.919 104.72 503.655 104.136 501.719 102.968C499.783 101.8 498.279 100.192 497.207 98.144C496.151 96.08 495.623 93.712 495.623 91.04C495.623 88.32 496.167 85.936 497.255 83.888C498.343 81.84 499.855 80.24 501.791 79.088C503.727 77.936 505.967 77.36 508.511 77.36C511.119 77.36 513.391 77.944 515.327 79.112C517.263 80.28 518.767 81.896 519.839 83.96C520.911 86.008 521.447 88.368 521.447 91.04C521.447 93.728 520.903 96.104 519.815 98.168C518.743 100.216 517.239 101.824 515.303 102.992C513.367 104.144 511.103 104.72 508.511 104.72ZM508.511 99.296C510.815 99.296 512.527 98.528 513.647 96.992C514.767 95.456 515.327 93.472 515.327 91.04C515.327 88.528 514.759 86.528 513.623 85.04C512.487 83.536 510.783 82.784 508.511 82.784C506.959 82.784 505.679 83.136 504.671 83.84C503.679 84.528 502.943 85.496 502.463 86.744C501.983 87.976 501.743 89.408 501.743 91.04C501.743 93.552 502.311 95.56 503.447 97.064C504.599 98.552 506.287 99.296 508.511 99.296ZM526.735 104V78.08H531.847V84.392L531.223 83.576C531.543 82.712 531.967 81.928 532.495 81.224C533.039 80.504 533.687 79.912 534.439 79.448C535.079 79.016 535.783 78.68 536.551 78.44C537.335 78.184 538.135 78.032 538.951 77.984C539.767 77.92 540.559 77.952 541.327 78.08V83.48C540.559 83.256 539.671 83.184 538.663 83.264C537.671 83.344 536.775 83.624 535.975 84.104C535.175 84.536 534.519 85.088 534.007 85.76C533.511 86.432 533.143 87.2 532.903 88.064C532.663 88.912 532.543 89.832 532.543 90.824V104H526.735ZM558.363 104.72C555.835 104.72 553.715 104.12 552.003 102.92C550.291 101.72 549.003 100.088 548.139 98.024C547.275 95.944 546.843 93.616 546.843 91.04C546.843 88.432 547.275 86.096 548.139 84.032C549.003 81.968 550.267 80.344 551.931 79.16C553.611 77.96 555.683 77.36 558.147 77.36C560.595 77.36 562.715 77.96 564.507 79.16C566.315 80.344 567.715 81.968 568.707 84.032C569.699 86.08 570.195 88.416 570.195 91.04C570.195 93.632 569.707 95.96 568.731 98.024C567.755 100.088 566.379 101.72 564.603 102.92C562.827 104.12 560.747 104.72 558.363 104.72ZM545.859 115.52V78.08H550.971V96.272H551.691V115.52H545.859ZM557.475 99.536C558.979 99.536 560.219 99.16 561.195 98.408C562.171 97.656 562.891 96.64 563.355 95.36C563.835 94.064 564.075 92.624 564.075 91.04C564.075 89.472 563.835 88.048 563.355 86.768C562.875 85.472 562.131 84.448 561.123 83.696C560.115 82.928 558.835 82.544 557.283 82.544C555.811 82.544 554.611 82.904 553.683 83.624C552.755 84.328 552.067 85.32 551.619 86.6C551.187 87.864 550.971 89.344 550.971 91.04C550.971 92.72 551.187 94.2 551.619 95.48C552.067 96.76 552.763 97.76 553.707 98.48C554.667 99.184 555.923 99.536 557.475 99.536ZM586.933 104.72C584.341 104.72 582.077 104.136 580.141 102.968C578.205 101.8 576.701 100.192 575.629 98.144C574.573 96.08 574.045 93.712 574.045 91.04C574.045 88.32 574.589 85.936 575.677 83.888C576.765 81.84 578.277 80.24 580.213 79.088C582.149 77.936 584.389 77.36 586.933 77.36C589.541 77.36 591.813 77.944 593.749 79.112C595.685 80.28 597.189 81.896 598.261 83.96C599.333 86.008 599.869 88.368 599.869 91.04C599.869 93.728 599.325 96.104 598.237 98.168C597.165 100.216 595.661 101.824 593.725 102.992C591.789 104.144 589.525 104.72 586.933 104.72ZM586.933 99.296C589.237 99.296 590.949 98.528 592.069 96.992C593.189 95.456 593.749 93.472 593.749 91.04C593.749 88.528 593.181 86.528 592.045 85.04C590.909 83.536 589.205 82.784 586.933 82.784C585.381 82.784 584.101 83.136 583.093 83.84C582.101 84.528 581.365 85.496 580.885 86.744C580.405 87.976 580.165 89.408 580.165 91.04C580.165 93.552 580.733 95.56 581.869 97.064C583.021 98.552 584.709 99.296 586.933 99.296ZM605.157 104V78.08H610.269V84.392L609.645 83.576C609.965 82.712 610.389 81.928 610.917 81.224C611.461 80.504 612.109 79.912 612.861 79.448C613.501 79.016 614.205 78.68 614.973 78.44C615.757 78.184 616.557 78.032 617.373 77.984C618.189 77.92 618.981 77.952 619.749 78.08V83.48C618.981 83.256 618.093 83.184 617.085 83.264C616.093 83.344 615.197 83.624 614.397 84.104C613.597 84.536 612.941 85.088 612.429 85.76C611.933 86.432 611.565 87.2 611.325 88.064C611.085 88.912 610.965 89.832 610.965 90.824V104H605.157ZM630.967 104.72C629.095 104.72 627.511 104.368 626.215 103.664C624.919 102.944 623.935 101.992 623.263 100.808C622.607 99.624 622.279 98.32 622.279 96.896C622.279 95.648 622.487 94.528 622.903 93.536C623.319 92.528 623.959 91.664 624.823 90.944C625.687 90.208 626.807 89.608 628.183 89.144C629.223 88.808 630.439 88.504 631.831 88.232C633.239 87.96 634.759 87.712 636.391 87.488C638.039 87.248 639.759 86.992 641.551 86.72L639.487 87.896C639.503 86.104 639.103 84.784 638.287 83.936C637.471 83.088 636.095 82.664 634.159 82.664C632.991 82.664 631.863 82.936 630.775 83.48C629.687 84.024 628.927 84.96 628.495 86.288L623.215 84.632C623.855 82.44 625.071 80.68 626.863 79.352C628.671 78.024 631.103 77.36 634.159 77.36C636.463 77.36 638.487 77.736 640.231 78.488C641.991 79.24 643.295 80.472 644.143 82.184C644.607 83.096 644.887 84.032 644.983 84.992C645.079 85.936 645.127 86.968 645.127 88.088V104H640.063V98.384L640.903 99.296C639.735 101.168 638.367 102.544 636.799 103.424C635.247 104.288 633.303 104.72 630.967 104.72ZM632.119 100.112C633.431 100.112 634.551 99.88 635.479 99.416C636.407 98.952 637.143 98.384 637.687 97.712C638.247 97.04 638.623 96.408 638.815 95.816C639.119 95.08 639.287 94.24 639.319 93.296C639.367 92.336 639.391 91.56 639.391 90.968L641.167 91.496C639.423 91.768 637.927 92.008 636.679 92.216C635.431 92.424 634.359 92.624 633.463 92.816C632.567 92.992 631.775 93.192 631.087 93.416C630.415 93.656 629.847 93.936 629.383 94.256C628.919 94.576 628.559 94.944 628.303 95.36C628.063 95.776 627.943 96.264 627.943 96.824C627.943 97.464 628.103 98.032 628.423 98.528C628.743 99.008 629.207 99.392 629.815 99.68C630.439 99.968 631.207 100.112 632.119 100.112ZM666.568 104C664.856 104.32 663.176 104.456 661.528 104.408C659.896 104.376 658.432 104.08 657.136 103.52C655.84 102.944 654.856 102.04 654.184 100.808C653.592 99.688 653.28 98.544 653.248 97.376C653.216 96.208 653.2 94.888 653.2 93.416V70.88H658.96V93.08C658.96 94.12 658.968 95.032 658.984 95.816C659.016 96.6 659.184 97.24 659.488 97.736C660.064 98.696 660.984 99.232 662.248 99.344C663.512 99.456 664.952 99.392 666.568 99.152V104ZM648.496 82.616V78.08H666.568V82.616H648.496ZM682.613 104.72C679.989 104.72 677.685 104.152 675.701 103.016C673.717 101.88 672.165 100.304 671.045 98.288C669.941 96.272 669.389 93.952 669.389 91.328C669.389 88.496 669.933 86.04 671.021 83.96C672.109 81.864 673.621 80.24 675.557 79.088C677.493 77.936 679.733 77.36 682.277 77.36C684.965 77.36 687.245 77.992 689.117 79.256C691.005 80.504 692.405 82.272 693.317 84.56C694.229 86.848 694.573 89.544 694.349 92.648H688.613V90.536C688.597 87.72 688.101 85.664 687.125 84.368C686.149 83.072 684.613 82.424 682.517 82.424C680.149 82.424 678.389 83.16 677.237 84.632C676.085 86.088 675.509 88.224 675.509 91.04C675.509 93.664 676.085 95.696 677.237 97.136C678.389 98.576 680.069 99.296 682.277 99.296C683.701 99.296 684.925 98.984 685.949 98.36C686.989 97.72 687.789 96.8 688.349 95.6L694.061 97.328C693.069 99.664 691.533 101.48 689.453 102.776C687.389 104.072 685.109 104.72 682.613 104.72ZM673.685 92.648V88.28H691.517V92.648H673.685ZM722.105 104.72C719.577 104.72 717.297 104.28 715.265 103.4C713.249 102.52 711.585 101.264 710.273 99.632C708.977 97.984 708.153 96.032 707.801 93.776L713.801 92.864C714.313 94.912 715.361 96.496 716.945 97.616C718.545 98.736 720.385 99.296 722.465 99.296C723.697 99.296 724.857 99.104 725.945 98.72C727.033 98.336 727.913 97.776 728.585 97.04C729.273 96.304 729.617 95.4 729.617 94.328C729.617 93.848 729.537 93.408 729.377 93.008C729.217 92.592 728.977 92.224 728.657 91.904C728.353 91.584 727.953 91.296 727.457 91.04C726.977 90.768 726.417 90.536 725.777 90.344L716.849 87.704C716.081 87.48 715.249 87.184 714.353 86.816C713.473 86.432 712.633 85.912 711.833 85.256C711.049 84.584 710.401 83.736 709.889 82.712C709.393 81.672 709.145 80.392 709.145 78.872C709.145 76.648 709.705 74.784 710.825 73.28C711.961 71.76 713.481 70.624 715.385 69.872C717.305 69.12 719.433 68.752 721.769 68.768C724.137 68.784 726.249 69.192 728.105 69.992C729.961 70.776 731.513 71.92 732.761 73.424C734.009 74.928 734.889 76.744 735.401 78.872L729.185 79.952C728.929 78.736 728.433 77.704 727.697 76.856C726.977 75.992 726.089 75.336 725.033 74.888C723.993 74.44 722.881 74.2 721.697 74.168C720.545 74.152 719.473 74.328 718.481 74.696C717.505 75.048 716.713 75.56 716.105 76.232C715.513 76.904 715.217 77.688 715.217 78.584C715.217 79.432 715.473 80.128 715.985 80.672C716.497 81.2 717.129 81.624 717.881 81.944C718.649 82.248 719.425 82.504 720.209 82.712L726.401 84.44C727.249 84.664 728.201 84.968 729.257 85.352C730.313 85.736 731.329 86.272 732.305 86.96C733.281 87.648 734.081 88.552 734.705 89.672C735.345 90.792 735.665 92.216 735.665 93.944C735.665 95.736 735.289 97.312 734.537 98.672C733.801 100.016 732.801 101.136 731.537 102.032C730.273 102.928 728.825 103.6 727.193 104.048C725.577 104.496 723.881 104.72 722.105 104.72ZM752.308 104.72C749.716 104.72 747.452 104.136 745.516 102.968C743.58 101.8 742.076 100.192 741.004 98.144C739.948 96.08 739.42 93.712 739.42 91.04C739.42 88.32 739.964 85.936 741.052 83.888C742.14 81.84 743.652 80.24 745.588 79.088C747.524 77.936 749.764 77.36 752.308 77.36C754.916 77.36 757.188 77.944 759.124 79.112C761.06 80.28 762.564 81.896 763.636 83.96C764.708 86.008 765.244 88.368 765.244 91.04C765.244 93.728 764.7 96.104 763.612 98.168C762.54 100.216 761.036 101.824 759.1 102.992C757.164 104.144 754.9 104.72 752.308 104.72ZM752.308 99.296C754.612 99.296 756.324 98.528 757.444 96.992C758.564 95.456 759.124 93.472 759.124 91.04C759.124 88.528 758.556 86.528 757.42 85.04C756.284 83.536 754.58 82.784 752.308 82.784C750.756 82.784 749.476 83.136 748.468 83.84C747.476 84.528 746.74 85.496 746.26 86.744C745.78 87.976 745.54 89.408 745.54 91.04C745.54 93.552 746.108 95.56 747.244 97.064C748.396 98.552 750.084 99.296 752.308 99.296ZM771.012 104V68.72H776.796V104H771.012ZM793.705 104.744C791.785 104.744 790.201 104.424 788.953 103.784C787.705 103.144 786.713 102.328 785.977 101.336C785.241 100.344 784.697 99.288 784.345 98.168C783.993 97.048 783.761 95.992 783.649 95C783.553 93.992 783.505 93.176 783.505 92.552V78.08H789.361V90.56C789.361 91.36 789.417 92.264 789.529 93.272C789.641 94.264 789.897 95.224 790.297 96.152C790.713 97.064 791.321 97.816 792.121 98.408C792.937 99 794.033 99.296 795.409 99.296C796.145 99.296 796.873 99.176 797.593 98.936C798.313 98.696 798.961 98.288 799.537 97.712C800.129 97.12 800.601 96.312 800.953 95.288C801.305 94.264 801.481 92.968 801.481 91.4L804.913 92.864C804.913 95.072 804.481 97.072 803.617 98.864C802.769 100.656 801.513 102.088 799.849 103.16C798.185 104.216 796.137 104.744 793.705 104.744ZM802.177 104V95.96H801.481V78.08H807.289V104H802.177ZM829.224 104C827.512 104.32 825.832 104.456 824.184 104.408C822.552 104.376 821.088 104.08 819.792 103.52C818.496 102.944 817.512 102.04 816.84 100.808C816.248 99.688 815.936 98.544 815.904 97.376C815.872 96.208 815.856 94.888 815.856 93.416V70.88H821.616V93.08C821.616 94.12 821.624 95.032 821.64 95.816C821.672 96.6 821.84 97.24 822.144 97.736C822.72 98.696 823.64 99.232 824.904 99.344C826.168 99.456 827.608 99.392 829.224 99.152V104ZM811.152 82.616V78.08H829.224V82.616H811.152ZM835.278 74.144V68.84H841.062V74.144H835.278ZM835.278 104V78.08H841.062V104H835.278ZM859.699 104.72C857.107 104.72 854.843 104.136 852.907 102.968C850.971 101.8 849.467 100.192 848.395 98.144C847.339 96.08 846.811 93.712 846.811 91.04C846.811 88.32 847.355 85.936 848.443 83.888C849.531 81.84 851.043 80.24 852.979 79.088C854.915 77.936 857.155 77.36 859.699 77.36C862.307 77.36 864.579 77.944 866.515 79.112C868.451 80.28 869.955 81.896 871.027 83.96C872.099 86.008 872.635 88.368 872.635 91.04C872.635 93.728 872.091 96.104 871.003 98.168C869.931 100.216 868.427 101.824 866.491 102.992C864.555 104.144 862.291 104.72 859.699 104.72ZM859.699 99.296C862.003 99.296 863.715 98.528 864.835 96.992C865.955 95.456 866.515 93.472 866.515 91.04C866.515 88.528 865.947 86.528 864.811 85.04C863.675 83.536 861.971 82.784 859.699 82.784C858.147 82.784 856.867 83.136 855.859 83.84C854.867 84.528 854.131 85.496 853.651 86.744C853.171 87.976 852.931 89.408 852.931 91.04C852.931 93.552 853.499 95.56 854.635 97.064C855.787 98.552 857.475 99.296 859.699 99.296ZM895.851 104V91.52C895.851 90.704 895.795 89.8 895.683 88.808C895.571 87.816 895.307 86.864 894.891 85.952C894.491 85.024 893.883 84.264 893.067 83.672C892.267 83.08 891.179 82.784 889.803 82.784C889.067 82.784 888.339 82.904 887.619 83.144C886.899 83.384 886.243 83.8 885.651 84.392C885.075 84.968 884.611 85.768 884.259 86.792C883.907 87.8 883.731 89.096 883.731 90.68L880.299 89.216C880.299 87.008 880.723 85.008 881.571 83.216C882.435 81.424 883.699 80 885.363 78.944C887.027 77.872 889.075 77.336 891.507 77.336C893.427 77.336 895.011 77.656 896.259 78.296C897.507 78.936 898.499 79.752 899.234 80.744C899.97 81.736 900.515 82.792 900.867 83.912C901.219 85.032 901.443 86.096 901.539 87.104C901.651 88.096 901.707 88.904 901.707 89.528V104H895.851ZM877.875 104V78.08H883.035V86.12H883.731V104H877.875Z" fill="white"/>
<path d="M480.812 162V149.04H482.135V162H480.812ZM491.853 162V157.041C491.853 156.501 491.802 156.006 491.7 155.556C491.598 155.1 491.433 154.704 491.205 154.368C490.983 154.026 490.692 153.762 490.332 153.576C489.978 153.39 489.546 153.297 489.036 153.297C488.568 153.297 488.154 153.378 487.794 153.54C487.44 153.702 487.14 153.936 486.894 154.242C486.654 154.542 486.471 154.908 486.345 155.34C486.219 155.772 486.156 156.264 486.156 156.816L485.22 156.609C485.22 155.613 485.394 154.776 485.742 154.098C486.09 153.42 486.57 152.907 487.182 152.559C487.794 152.211 488.496 152.037 489.288 152.037C489.87 152.037 490.377 152.127 490.809 152.307C491.247 152.487 491.616 152.73 491.916 153.036C492.222 153.342 492.468 153.693 492.654 154.089C492.84 154.479 492.975 154.896 493.059 155.34C493.143 155.778 493.185 156.216 493.185 156.654V162H491.853ZM484.824 162V152.28H486.021V154.674H486.156V162H484.824ZM500.813 162C500.267 162.114 499.727 162.159 499.193 162.135C498.665 162.111 498.191 161.997 497.771 161.793C497.357 161.589 497.042 161.271 496.826 160.839C496.652 160.479 496.556 160.116 496.538 159.75C496.526 159.378 496.52 158.955 496.52 158.481V149.58H497.834V158.427C497.834 158.835 497.837 159.177 497.843 159.453C497.855 159.723 497.918 159.963 498.032 160.173C498.248 160.575 498.59 160.815 499.058 160.893C499.532 160.971 500.117 160.953 500.813 160.839V162ZM494.441 153.414V152.28H500.813V153.414H494.441ZM506.489 162.27C505.541 162.27 504.719 162.06 504.023 161.64C503.333 161.22 502.796 160.629 502.412 159.867C502.028 159.105 501.836 158.211 501.836 157.185C501.836 156.123 502.025 155.205 502.403 154.431C502.781 153.657 503.312 153.06 503.996 152.64C504.686 152.22 505.499 152.01 506.435 152.01C507.395 152.01 508.214 152.232 508.892 152.676C509.57 153.114 510.083 153.744 510.431 154.566C510.779 155.388 510.938 156.369 510.908 157.509H509.558V157.041C509.534 155.781 509.261 154.83 508.739 154.188C508.223 153.546 507.467 153.225 506.471 153.225C505.427 153.225 504.626 153.564 504.068 154.242C503.516 154.92 503.24 155.886 503.24 157.14C503.24 158.364 503.516 159.315 504.068 159.993C504.626 160.665 505.415 161.001 506.435 161.001C507.131 161.001 507.737 160.842 508.253 160.524C508.775 160.2 509.186 159.735 509.486 159.129L510.719 159.606C510.335 160.452 509.768 161.109 509.018 161.577C508.274 162.039 507.431 162.27 506.489 162.27ZM502.772 157.509V156.402H510.197V157.509H502.772ZM512.906 162V152.28H514.094V154.62L513.86 154.314C513.968 154.026 514.109 153.762 514.283 153.522C514.457 153.276 514.646 153.075 514.85 152.919C515.102 152.697 515.396 152.529 515.732 152.415C516.068 152.295 516.407 152.226 516.749 152.208C517.091 152.184 517.403 152.208 517.685 152.28V153.522C517.331 153.432 516.944 153.411 516.524 153.459C516.104 153.507 515.717 153.675 515.363 153.963C515.039 154.215 514.796 154.518 514.634 154.872C514.472 155.22 514.364 155.592 514.31 155.988C514.256 156.378 514.229 156.765 514.229 157.149V162H512.906ZM523.329 162.27C522.381 162.27 521.559 162.06 520.863 161.64C520.173 161.22 519.636 160.629 519.252 159.867C518.868 159.105 518.676 158.211 518.676 157.185C518.676 156.123 518.865 155.205 519.243 154.431C519.621 153.657 520.152 153.06 520.836 152.64C521.526 152.22 522.339 152.01 523.275 152.01C524.235 152.01 525.054 152.232 525.732 152.676C526.41 153.114 526.923 153.744 527.271 154.566C527.619 155.388 527.778 156.369 527.748 157.509H526.398V157.041C526.374 155.781 526.101 154.83 525.579 154.188C525.063 153.546 524.307 153.225 523.311 153.225C522.267 153.225 521.466 153.564 520.908 154.242C520.356 154.92 520.08 155.886 520.08 157.14C520.08 158.364 520.356 159.315 520.908 159.993C521.466 160.665 522.255 161.001 523.275 161.001C523.971 161.001 524.577 160.842 525.093 160.524C525.615 160.2 526.026 159.735 526.326 159.129L527.559 159.606C527.175 160.452 526.608 161.109 525.858 161.577C525.114 162.039 524.271 162.27 523.329 162.27ZM519.612 157.509V156.402H527.037V157.509H519.612ZM533.372 162.261C532.232 162.261 531.293 162.015 530.555 161.523C529.823 161.031 529.373 160.347 529.205 159.471L530.555 159.246C530.699 159.798 531.026 160.239 531.536 160.569C532.052 160.893 532.688 161.055 533.444 161.055C534.182 161.055 534.764 160.902 535.19 160.596C535.616 160.284 535.829 159.861 535.829 159.327C535.829 159.027 535.76 158.784 535.622 158.598C535.49 158.406 535.217 158.229 534.803 158.067C534.389 157.905 533.771 157.713 532.949 157.491C532.067 157.251 531.377 157.011 530.879 156.771C530.381 156.531 530.027 156.255 529.817 155.943C529.607 155.625 529.502 155.238 529.502 154.782C529.502 154.23 529.658 153.747 529.97 153.333C530.282 152.913 530.714 152.589 531.266 152.361C531.818 152.127 532.46 152.01 533.192 152.01C533.924 152.01 534.578 152.13 535.154 152.37C535.736 152.604 536.204 152.934 536.558 153.36C536.912 153.786 537.122 154.281 537.188 154.845L535.838 155.088C535.748 154.518 535.463 154.068 534.983 153.738C534.509 153.402 533.906 153.228 533.174 153.216C532.484 153.198 531.923 153.33 531.491 153.612C531.059 153.888 530.843 154.257 530.843 154.719C530.843 154.977 530.921 155.199 531.077 155.385C531.233 155.565 531.515 155.736 531.923 155.898C532.337 156.06 532.925 156.237 533.687 156.429C534.581 156.657 535.283 156.897 535.793 157.149C536.303 157.401 536.666 157.698 536.882 158.04C537.098 158.382 537.206 158.805 537.206 159.309C537.206 160.227 536.864 160.95 536.18 161.478C535.502 162 534.566 162.261 533.372 162.261ZM544.494 162C543.948 162.114 543.408 162.159 542.874 162.135C542.346 162.111 541.872 161.997 541.452 161.793C541.038 161.589 540.723 161.271 540.507 160.839C540.333 160.479 540.237 160.116 540.219 159.75C540.207 159.378 540.201 158.955 540.201 158.481V149.58H541.515V158.427C541.515 158.835 541.518 159.177 541.524 159.453C541.536 159.723 541.599 159.963 541.713 160.173C541.929 160.575 542.271 160.815 542.739 160.893C543.213 160.971 543.798 160.953 544.494 160.839V162ZM538.122 153.414V152.28H544.494V153.414H538.122ZM550.171 162.27C549.223 162.27 548.401 162.06 547.705 161.64C547.015 161.22 546.478 160.629 546.094 159.867C545.71 159.105 545.518 158.211 545.518 157.185C545.518 156.123 545.707 155.205 546.085 154.431C546.463 153.657 546.994 153.06 547.678 152.64C548.368 152.22 549.181 152.01 550.117 152.01C551.077 152.01 551.896 152.232 552.574 152.676C553.252 153.114 553.765 153.744 554.113 154.566C554.461 155.388 554.62 156.369 554.59 157.509H553.24V157.041C553.216 155.781 552.943 154.83 552.421 154.188C551.905 153.546 551.149 153.225 550.153 153.225C549.109 153.225 548.308 153.564 547.75 154.242C547.198 154.92 546.922 155.886 546.922 157.14C546.922 158.364 547.198 159.315 547.75 159.993C548.308 160.665 549.097 161.001 550.117 161.001C550.813 161.001 551.419 160.842 551.935 160.524C552.457 160.2 552.868 159.735 553.168 159.129L554.401 159.606C554.017 160.452 553.45 161.109 552.7 161.577C551.956 162.039 551.113 162.27 550.171 162.27ZM546.454 157.509V156.402H553.879V157.509H546.454ZM560.358 162.27C559.452 162.27 558.678 162.045 558.036 161.595C557.394 161.139 556.902 160.524 556.56 159.75C556.218 158.976 556.047 158.103 556.047 157.131C556.047 156.165 556.215 155.295 556.551 154.521C556.893 153.747 557.382 153.135 558.018 152.685C558.654 152.235 559.416 152.01 560.304 152.01C561.216 152.01 561.984 152.232 562.608 152.676C563.232 153.12 563.703 153.729 564.021 154.503C564.345 155.271 564.507 156.147 564.507 157.131C564.507 158.097 564.348 158.97 564.03 159.75C563.712 160.524 563.244 161.139 562.626 161.595C562.008 162.045 561.252 162.27 560.358 162.27ZM560.493 161.037C561.183 161.037 561.753 160.869 562.203 160.533C562.653 160.197 562.989 159.735 563.211 159.147C563.433 158.553 563.544 157.881 563.544 157.131C563.544 156.369 563.433 155.697 563.211 155.115C562.989 154.527 562.653 154.068 562.203 153.738C561.759 153.408 561.198 153.243 560.52 153.243C559.824 153.243 559.248 153.414 558.792 153.756C558.336 154.098 557.997 154.563 557.775 155.151C557.559 155.739 557.451 156.399 557.451 157.131C557.451 157.869 557.562 158.535 557.784 159.129C558.012 159.717 558.351 160.182 558.801 160.524C559.251 160.866 559.815 161.037 560.493 161.037ZM563.544 162V154.683H563.4V149.04H564.732V162H563.544ZM576.153 162C575.607 162.114 575.067 162.159 574.533 162.135C574.005 162.111 573.531 161.997 573.111 161.793C572.697 161.589 572.382 161.271 572.166 160.839C571.992 160.479 571.896 160.116 571.878 159.75C571.866 159.378 571.86 158.955 571.86 158.481V149.58H573.174V158.427C573.174 158.835 573.177 159.177 573.183 159.453C573.195 159.723 573.258 159.963 573.372 160.173C573.588 160.575 573.93 160.815 574.398 160.893C574.872 160.971 575.457 160.953 576.153 160.839V162ZM569.781 153.414V152.28H576.153V153.414H569.781ZM581.775 162.27C580.809 162.27 579.984 162.051 579.3 161.613C578.616 161.175 578.091 160.569 577.725 159.795C577.359 159.021 577.176 158.133 577.176 157.131C577.176 156.111 577.362 155.217 577.734 154.449C578.106 153.681 578.634 153.084 579.318 152.658C580.008 152.226 580.827 152.01 581.775 152.01C582.747 152.01 583.575 152.229 584.259 152.667C584.949 153.099 585.474 153.702 585.834 154.476C586.2 155.244 586.383 156.129 586.383 157.131C586.383 158.151 586.2 159.048 585.834 159.822C585.468 160.59 584.94 161.19 584.25 161.622C583.56 162.054 582.735 162.27 581.775 162.27ZM581.775 161.001C582.855 161.001 583.659 160.644 584.187 159.93C584.715 159.21 584.979 158.277 584.979 157.131C584.979 155.955 584.712 155.019 584.178 154.323C583.65 153.627 582.849 153.279 581.775 153.279C581.049 153.279 580.449 153.444 579.975 153.774C579.507 154.098 579.156 154.551 578.922 155.133C578.694 155.709 578.58 156.375 578.58 157.131C578.58 158.301 578.85 159.24 579.39 159.948C579.93 160.65 580.725 161.001 581.775 161.001ZM596.337 162.27C595.443 162.27 594.687 162.045 594.069 161.595C593.451 161.139 592.983 160.524 592.665 159.75C592.347 158.97 592.188 158.097 592.188 157.131C592.188 156.147 592.347 155.271 592.665 154.503C592.989 153.729 593.463 153.12 594.087 152.676C594.711 152.232 595.479 152.01 596.391 152.01C597.279 152.01 598.041 152.235 598.677 152.685C599.313 153.135 599.799 153.747 600.135 154.521C600.477 155.295 600.648 156.165 600.648 157.131C600.648 158.103 600.477 158.976 600.135 159.75C599.793 160.524 599.301 161.139 598.659 161.595C598.017 162.045 597.243 162.27 596.337 162.27ZM591.963 162V149.04H593.295V154.683H593.151V162H591.963ZM596.202 161.037C596.88 161.037 597.444 160.866 597.894 160.524C598.344 160.182 598.68 159.717 598.902 159.129C599.13 158.535 599.244 157.869 599.244 157.131C599.244 156.399 599.133 155.739 598.911 155.151C598.689 154.563 598.35 154.098 597.894 153.756C597.444 153.414 596.871 153.243 596.175 153.243C595.497 153.243 594.933 153.408 594.483 153.738C594.039 154.068 593.706 154.527 593.484 155.115C593.262 155.697 593.151 156.369 593.151 157.131C593.151 157.881 593.262 158.553 593.484 159.147C593.706 159.735 594.042 160.197 594.492 160.533C594.942 160.869 595.512 161.037 596.202 161.037ZM606.737 162.27C605.789 162.27 604.967 162.06 604.271 161.64C603.581 161.22 603.044 160.629 602.66 159.867C602.276 159.105 602.084 158.211 602.084 157.185C602.084 156.123 602.273 155.205 602.651 154.431C603.029 153.657 603.56 153.06 604.244 152.64C604.934 152.22 605.747 152.01 606.683 152.01C607.643 152.01 608.462 152.232 609.14 152.676C609.818 153.114 610.331 153.744 610.679 154.566C611.027 155.388 611.186 156.369 611.156 157.509H609.806V157.041C609.782 155.781 609.509 154.83 608.987 154.188C608.471 153.546 607.715 153.225 606.719 153.225C605.675 153.225 604.874 153.564 604.316 154.242C603.764 154.92 603.488 155.886 603.488 157.14C603.488 158.364 603.764 159.315 604.316 159.993C604.874 160.665 605.663 161.001 606.683 161.001C607.379 161.001 607.985 160.842 608.501 160.524C609.023 160.2 609.434 159.735 609.734 159.129L610.967 159.606C610.583 160.452 610.016 161.109 609.266 161.577C608.522 162.039 607.679 162.27 606.737 162.27ZM603.02 157.509V156.402H610.445V157.509H603.02ZM619.538 162.27C618.806 162.27 618.191 162.138 617.693 161.874C617.201 161.61 616.832 161.259 616.586 160.821C616.34 160.383 616.217 159.906 616.217 159.39C616.217 158.862 616.322 158.412 616.532 158.04C616.748 157.662 617.039 157.353 617.405 157.113C617.777 156.873 618.206 156.69 618.692 156.564C619.184 156.444 619.727 156.339 620.321 156.249C620.921 156.153 621.506 156.072 622.076 156.006C622.652 155.934 623.156 155.865 623.588 155.799L623.12 156.087C623.138 155.127 622.952 154.416 622.562 153.954C622.172 153.492 621.494 153.261 620.528 153.261C619.862 153.261 619.298 153.411 618.836 153.711C618.38 154.011 618.059 154.485 617.873 155.133L616.586 154.755C616.808 153.885 617.255 153.21 617.927 152.73C618.599 152.25 619.472 152.01 620.546 152.01C621.434 152.01 622.187 152.178 622.805 152.514C623.429 152.844 623.87 153.324 624.128 153.954C624.248 154.236 624.326 154.551 624.362 154.899C624.398 155.247 624.416 155.601 624.416 155.961V162H623.237V159.561L623.579 159.705C623.249 160.539 622.736 161.175 622.04 161.613C621.344 162.051 620.51 162.27 619.538 162.27ZM619.691 161.127C620.309 161.127 620.849 161.016 621.311 160.794C621.773 160.572 622.145 160.269 622.427 159.885C622.709 159.495 622.892 159.057 622.976 158.571C623.048 158.259 623.087 157.917 623.093 157.545C623.099 157.167 623.102 156.885 623.102 156.699L623.606 156.96C623.156 157.02 622.667 157.08 622.139 157.14C621.617 157.2 621.101 157.269 620.591 157.347C620.087 157.425 619.631 157.518 619.223 157.626C618.947 157.704 618.68 157.815 618.422 157.959C618.164 158.097 617.951 158.283 617.783 158.517C617.621 158.751 617.54 159.042 617.54 159.39C617.54 159.672 617.609 159.945 617.747 160.209C617.891 160.473 618.119 160.692 618.431 160.866C618.749 161.04 619.169 161.127 619.691 161.127ZM634.728 162.27C633.834 162.27 633.078 162.045 632.46 161.595C631.842 161.139 631.374 160.524 631.056 159.75C630.738 158.97 630.579 158.097 630.579 157.131C630.579 156.147 630.738 155.271 631.056 154.503C631.38 153.729 631.854 153.12 632.478 152.676C633.102 152.232 633.87 152.01 634.782 152.01C635.67 152.01 636.432 152.235 637.068 152.685C637.704 153.135 638.19 153.747 638.526 154.521C638.868 155.295 639.039 156.165 639.039 157.131C639.039 158.103 638.868 158.976 638.526 159.75C638.184 160.524 637.692 161.139 637.05 161.595C636.408 162.045 635.634 162.27 634.728 162.27ZM630.354 166.32V152.28H631.542V159.597H631.686V166.32H630.354ZM634.593 161.037C635.271 161.037 635.835 160.866 636.285 160.524C636.735 160.182 637.071 159.717 637.293 159.129C637.521 158.535 637.635 157.869 637.635 157.131C637.635 156.399 637.524 155.739 637.302 155.151C637.08 154.563 636.741 154.098 636.285 153.756C635.835 153.414 635.262 153.243 634.566 153.243C633.888 153.243 633.324 153.408 632.874 153.738C632.43 154.068 632.097 154.527 631.875 155.115C631.653 155.697 631.542 156.369 631.542 157.131C631.542 157.881 631.653 158.553 631.875 159.147C632.097 159.735 632.433 160.197 632.883 160.533C633.333 160.869 633.903 161.037 634.593 161.037ZM643.796 162.27C643.064 162.27 642.449 162.138 641.951 161.874C641.459 161.61 641.09 161.259 640.844 160.821C640.598 160.383 640.475 159.906 640.475 159.39C640.475 158.862 640.58 158.412 640.79 158.04C641.006 157.662 641.297 157.353 641.663 157.113C642.035 156.873 642.464 156.69 642.95 156.564C643.442 156.444 643.985 156.339 644.579 156.249C645.179 156.153 645.764 156.072 646.334 156.006C646.91 155.934 647.414 155.865 647.846 155.799L647.378 156.087C647.396 155.127 647.21 154.416 646.82 153.954C646.43 153.492 645.752 153.261 644.786 153.261C644.12 153.261 643.556 153.411 643.094 153.711C642.638 154.011 642.317 154.485 642.131 155.133L640.844 154.755C641.066 153.885 641.513 153.21 642.185 152.73C642.857 152.25 643.73 152.01 644.804 152.01C645.692 152.01 646.445 152.178 647.063 152.514C647.687 152.844 648.128 153.324 648.386 153.954C648.506 154.236 648.584 154.551 648.62 154.899C648.656 155.247 648.674 155.601 648.674 155.961V162H647.495V159.561L647.837 159.705C647.507 160.539 646.994 161.175 646.298 161.613C645.602 162.051 644.768 162.27 643.796 162.27ZM643.949 161.127C644.567 161.127 645.107 161.016 645.569 160.794C646.031 160.572 646.403 160.269 646.685 159.885C646.967 159.495 647.15 159.057 647.234 158.571C647.306 158.259 647.345 157.917 647.351 157.545C647.357 157.167 647.36 156.885 647.36 156.699L647.864 156.96C647.414 157.02 646.925 157.08 646.397 157.14C645.875 157.2 645.359 157.269 644.849 157.347C644.345 157.425 643.889 157.518 643.481 157.626C643.205 157.704 642.938 157.815 642.68 157.959C642.422 158.097 642.209 158.283 642.041 158.517C641.879 158.751 641.798 159.042 641.798 159.39C641.798 159.672 641.867 159.945 642.005 160.209C642.149 160.473 642.377 160.692 642.689 160.866C643.007 161.04 643.427 161.127 643.949 161.127ZM651.017 162V152.28H652.205V154.62L651.971 154.314C652.079 154.026 652.22 153.762 652.394 153.522C652.568 153.276 652.757 153.075 652.961 152.919C653.213 152.697 653.507 152.529 653.843 152.415C654.179 152.295 654.518 152.226 654.86 152.208C655.202 152.184 655.514 152.208 655.796 152.28V153.522C655.442 153.432 655.055 153.411 654.635 153.459C654.215 153.507 653.828 153.675 653.474 153.963C653.15 154.215 652.907 154.518 652.745 154.872C652.583 155.22 652.475 155.592 652.421 155.988C652.367 156.378 652.34 156.765 652.34 157.149V162H651.017ZM662.795 162C662.249 162.114 661.709 162.159 661.175 162.135C660.647 162.111 660.173 161.997 659.753 161.793C659.339 161.589 659.024 161.271 658.808 160.839C658.634 160.479 658.538 160.116 658.52 159.75C658.508 159.378 658.502 158.955 658.502 158.481V149.58H659.816V158.427C659.816 158.835 659.819 159.177 659.825 159.453C659.837 159.723 659.9 159.963 660.014 160.173C660.23 160.575 660.572 160.815 661.04 160.893C661.514 160.971 662.099 160.953 662.795 160.839V162ZM656.423 153.414V152.28H662.795V153.414H656.423ZM672.373 162.27C671.407 162.27 670.582 162.051 669.898 161.613C669.214 161.175 668.689 160.569 668.323 159.795C667.957 159.021 667.774 158.133 667.774 157.131C667.774 156.111 667.96 155.217 668.332 154.449C668.704 153.681 669.232 153.084 669.916 152.658C670.606 152.226 671.425 152.01 672.373 152.01C673.345 152.01 674.173 152.229 674.857 152.667C675.547 153.099 676.072 153.702 676.432 154.476C676.798 155.244 676.981 156.129 676.981 157.131C676.981 158.151 676.798 159.048 676.432 159.822C676.066 160.59 675.538 161.19 674.848 161.622C674.158 162.054 673.333 162.27 672.373 162.27ZM672.373 161.001C673.453 161.001 674.257 160.644 674.785 159.93C675.313 159.21 675.577 158.277 675.577 157.131C675.577 155.955 675.31 155.019 674.776 154.323C674.248 153.627 673.447 153.279 672.373 153.279C671.647 153.279 671.047 153.444 670.573 153.774C670.105 154.098 669.754 154.551 669.52 155.133C669.292 155.709 669.178 156.375 669.178 157.131C669.178 158.301 669.448 159.24 669.988 159.948C670.528 160.65 671.323 161.001 672.373 161.001ZM679.929 162V151.56C679.929 151.308 679.941 151.059 679.965 150.813C679.995 150.567 680.052 150.333 680.136 150.111C680.22 149.883 680.352 149.673 680.532 149.481C680.73 149.265 680.946 149.109 681.18 149.013C681.414 148.911 681.657 148.845 681.909 148.815C682.167 148.785 682.419 148.77 682.665 148.77H683.907V149.886H682.755C682.251 149.886 681.873 150.009 681.621 150.255C681.375 150.501 681.252 150.888 681.252 151.416V162H679.929ZM678.246 153.414V152.28H683.907V153.414H678.246ZM694.242 162C693.696 162.114 693.156 162.159 692.622 162.135C692.094 162.111 691.62 161.997 691.2 161.793C690.786 161.589 690.471 161.271 690.255 160.839C690.081 160.479 689.985 160.116 689.967 159.75C689.955 159.378 689.949 158.955 689.949 158.481V149.58H691.263V158.427C691.263 158.835 691.266 159.177 691.272 159.453C691.284 159.723 691.347 159.963 691.461 160.173C691.677 160.575 692.019 160.815 692.487 160.893C692.961 160.971 693.546 160.953 694.242 160.839V162ZM687.87 153.414V152.28H694.242V153.414H687.87ZM703.177 162V157.041C703.177 156.501 703.126 156.006 703.024 155.556C702.922 155.1 702.757 154.704 702.529 154.368C702.307 154.026 702.016 153.762 701.656 153.576C701.302 153.39 700.87 153.297 700.36 153.297C699.892 153.297 699.478 153.378 699.118 153.54C698.764 153.702 698.464 153.936 698.218 154.242C697.978 154.542 697.795 154.908 697.669 155.34C697.543 155.772 697.48 156.264 697.48 156.816L696.544 156.609C696.544 155.613 696.718 154.776 697.066 154.098C697.414 153.42 697.894 152.907 698.506 152.559C699.118 152.211 699.82 152.037 700.612 152.037C701.194 152.037 701.701 152.127 702.133 152.307C702.571 152.487 702.94 152.73 703.24 153.036C703.546 153.342 703.792 153.693 703.978 154.089C704.164 154.479 704.299 154.896 704.383 155.34C704.467 155.778 704.509 156.216 704.509 156.654V162H703.177ZM696.148 162V149.04H697.345V156.357H697.48V162H696.148ZM710.958 162.27C710.01 162.27 709.188 162.06 708.492 161.64C707.802 161.22 707.265 160.629 706.881 159.867C706.497 159.105 706.305 158.211 706.305 157.185C706.305 156.123 706.494 155.205 706.872 154.431C707.25 153.657 707.781 153.06 708.465 152.64C709.155 152.22 709.968 152.01 710.904 152.01C711.864 152.01 712.683 152.232 713.361 152.676C714.039 153.114 714.552 153.744 714.9 154.566C715.248 155.388 715.407 156.369 715.377 157.509H714.027V157.041C714.003 155.781 713.73 154.83 713.208 154.188C712.692 153.546 711.936 153.225 710.94 153.225C709.896 153.225 709.095 153.564 708.537 154.242C707.985 154.92 707.709 155.886 707.709 157.14C707.709 158.364 707.985 159.315 708.537 159.993C709.095 160.665 709.884 161.001 710.904 161.001C711.6 161.001 712.206 160.842 712.722 160.524C713.244 160.2 713.655 159.735 713.955 159.129L715.188 159.606C714.804 160.452 714.237 161.109 713.487 161.577C712.743 162.039 711.9 162.27 710.958 162.27ZM707.241 157.509V156.402H714.666V157.509H707.241ZM725.343 162.27C724.449 162.27 723.693 162.045 723.075 161.595C722.457 161.139 721.989 160.524 721.671 159.75C721.353 158.97 721.194 158.097 721.194 157.131C721.194 156.147 721.353 155.271 721.671 154.503C721.995 153.729 722.469 153.12 723.093 152.676C723.717 152.232 724.485 152.01 725.397 152.01C726.285 152.01 727.047 152.235 727.683 152.685C728.319 153.135 728.805 153.747 729.141 154.521C729.483 155.295 729.654 156.165 729.654 157.131C729.654 158.103 729.483 158.976 729.141 159.75C728.799 160.524 728.307 161.139 727.665 161.595C727.023 162.045 726.249 162.27 725.343 162.27ZM720.969 166.32V152.28H722.157V159.597H722.301V166.32H720.969ZM725.208 161.037C725.886 161.037 726.45 160.866 726.9 160.524C727.35 160.182 727.686 159.717 727.908 159.129C728.136 158.535 728.25 157.869 728.25 157.131C728.25 156.399 728.139 155.739 727.917 155.151C727.695 154.563 727.356 154.098 726.9 153.756C726.45 153.414 725.877 153.243 725.181 153.243C724.503 153.243 723.939 153.408 723.489 153.738C723.045 154.068 722.712 154.527 722.49 155.115C722.268 155.697 722.157 156.369 722.157 157.131C722.157 157.881 722.268 158.553 722.49 159.147C722.712 159.735 723.048 160.197 723.498 160.533C723.948 160.869 724.518 161.037 725.208 161.037ZM731.81 162V148.77H733.133V162H731.81ZM738.612 162.27C737.88 162.27 737.265 162.138 736.767 161.874C736.275 161.61 735.906 161.259 735.66 160.821C735.414 160.383 735.291 159.906 735.291 159.39C735.291 158.862 735.396 158.412 735.606 158.04C735.822 157.662 736.113 157.353 736.479 157.113C736.851 156.873 737.28 156.69 737.766 156.564C738.258 156.444 738.801 156.339 739.395 156.249C739.995 156.153 740.58 156.072 741.15 156.006C741.726 155.934 742.23 155.865 742.662 155.799L742.194 156.087C742.212 155.127 742.026 154.416 741.636 153.954C741.246 153.492 740.568 153.261 739.602 153.261C738.936 153.261 738.372 153.411 737.91 153.711C737.454 154.011 737.133 154.485 736.947 155.133L735.66 154.755C735.882 153.885 736.329 153.21 737.001 152.73C737.673 152.25 738.546 152.01 739.62 152.01C740.508 152.01 741.261 152.178 741.879 152.514C742.503 152.844 742.944 153.324 743.202 153.954C743.322 154.236 743.4 154.551 743.436 154.899C743.472 155.247 743.49 155.601 743.49 155.961V162H742.311V159.561L742.653 159.705C742.323 160.539 741.81 161.175 741.114 161.613C740.418 162.051 739.584 162.27 738.612 162.27ZM738.765 161.127C739.383 161.127 739.923 161.016 740.385 160.794C740.847 160.572 741.219 160.269 741.501 159.885C741.783 159.495 741.966 159.057 742.05 158.571C742.122 158.259 742.161 157.917 742.167 157.545C742.173 157.167 742.176 156.885 742.176 156.699L742.68 156.96C742.23 157.02 741.741 157.08 741.213 157.14C740.691 157.2 740.175 157.269 739.665 157.347C739.161 157.425 738.705 157.518 738.297 157.626C738.021 157.704 737.754 157.815 737.496 157.959C737.238 158.097 737.025 158.283 736.857 158.517C736.695 158.751 736.614 159.042 736.614 159.39C736.614 159.672 736.683 159.945 736.821 160.209C736.965 160.473 737.193 160.692 737.505 160.866C737.823 161.04 738.243 161.127 738.765 161.127ZM751.125 162C750.579 162.114 750.039 162.159 749.505 162.135C748.977 162.111 748.503 161.997 748.083 161.793C747.669 161.589 747.354 161.271 747.138 160.839C746.964 160.479 746.868 160.116 746.85 159.75C746.838 159.378 746.832 158.955 746.832 158.481V149.58H748.146V158.427C748.146 158.835 748.149 159.177 748.155 159.453C748.167 159.723 748.23 159.963 748.344 160.173C748.56 160.575 748.902 160.815 749.37 160.893C749.844 160.971 750.429 160.953 751.125 160.839V162ZM744.753 153.414V152.28H751.125V153.414H744.753ZM754.003 162V151.56C754.003 151.308 754.015 151.059 754.039 150.813C754.069 150.567 754.126 150.333 754.21 150.111C754.294 149.883 754.426 149.673 754.606 149.481C754.804 149.265 755.02 149.109 755.254 149.013C755.488 148.911 755.731 148.845 755.983 148.815C756.241 148.785 756.493 148.77 756.739 148.77H757.981V149.886H756.829C756.325 149.886 755.947 150.009 755.695 150.255C755.449 150.501 755.326 150.888 755.326 151.416V162H754.003ZM752.32 153.414V152.28H757.981V153.414H752.32ZM763.129 162.27C762.163 162.27 761.338 162.051 760.654 161.613C759.97 161.175 759.445 160.569 759.079 159.795C758.713 159.021 758.53 158.133 758.53 157.131C758.53 156.111 758.716 155.217 759.088 154.449C759.46 153.681 759.988 153.084 760.672 152.658C761.362 152.226 762.181 152.01 763.129 152.01C764.101 152.01 764.929 152.229 765.613 152.667C766.303 153.099 766.828 153.702 767.188 154.476C767.554 155.244 767.737 156.129 767.737 157.131C767.737 158.151 767.554 159.048 767.188 159.822C766.822 160.59 766.294 161.19 765.604 161.622C764.914 162.054 764.089 162.27 763.129 162.27ZM763.129 161.001C764.209 161.001 765.013 160.644 765.541 159.93C766.069 159.21 766.333 158.277 766.333 157.131C766.333 155.955 766.066 155.019 765.532 154.323C765.004 153.627 764.203 153.279 763.129 153.279C762.403 153.279 761.803 153.444 761.329 153.774C760.861 154.098 760.51 154.551 760.276 155.133C760.048 155.709 759.934 156.375 759.934 157.131C759.934 158.301 760.204 159.24 760.744 159.948C761.284 160.65 762.079 161.001 763.129 161.001ZM769.722 162V152.28H770.91V154.62L770.676 154.314C770.784 154.026 770.925 153.762 771.099 153.522C771.273 153.276 771.462 153.075 771.666 152.919C771.918 152.697 772.212 152.529 772.548 152.415C772.884 152.295 773.223 152.226 773.565 152.208C773.907 152.184 774.219 152.208 774.501 152.28V153.522C774.147 153.432 773.76 153.411 773.34 153.459C772.92 153.507 772.533 153.675 772.179 153.963C771.855 154.215 771.612 154.518 771.45 154.872C771.288 155.22 771.18 155.592 771.126 155.988C771.072 156.378 771.045 156.765 771.045 157.149V162H769.722ZM787.8 162L787.809 155.619C787.809 154.869 787.599 154.281 787.179 153.855C786.765 153.423 786.237 153.207 785.595 153.207C785.229 153.207 784.872 153.291 784.524 153.459C784.176 153.627 783.888 153.897 783.66 154.269C783.438 154.641 783.327 155.127 783.327 155.727L782.544 155.502C782.526 154.806 782.661 154.197 782.949 153.675C783.243 153.153 783.645 152.748 784.155 152.46C784.671 152.166 785.253 152.019 785.901 152.019C786.879 152.019 787.662 152.322 788.25 152.928C788.838 153.528 789.132 154.341 789.132 155.367L789.123 162H787.8ZM776.199 162V152.28H777.387V154.674H777.531V162H776.199ZM782.013 162L782.022 155.709C782.022 154.935 781.815 154.326 781.401 153.882C780.993 153.432 780.453 153.207 779.781 153.207C779.109 153.207 778.566 153.438 778.152 153.9C777.738 154.356 777.531 154.965 777.531 155.727L776.739 155.295C776.739 154.671 776.886 154.113 777.18 153.621C777.474 153.123 777.876 152.733 778.386 152.451C778.896 152.163 779.475 152.019 780.123 152.019C780.741 152.019 781.29 152.151 781.77 152.415C782.256 152.679 782.637 153.063 782.913 153.567C783.189 154.071 783.327 154.683 783.327 155.403L783.318 162H782.013ZM794.004 158.463C794.004 157.995 794.025 157.584 794.067 157.23C794.115 156.87 794.235 156.51 794.427 156.15C794.607 155.808 794.829 155.526 795.093 155.304C795.357 155.076 795.633 154.863 795.921 154.665C796.209 154.461 796.482 154.221 796.74 153.945C796.974 153.675 797.13 153.402 797.208 153.126C797.286 152.85 797.325 152.559 797.325 152.253C797.325 151.947 797.286 151.674 797.208 151.434C797.136 151.194 797.022 150.987 796.866 150.813C796.626 150.519 796.332 150.318 795.984 150.21C795.636 150.102 795.273 150.048 794.895 150.048C794.523 150.048 794.175 150.102 793.851 150.21C793.533 150.312 793.269 150.471 793.059 150.687C792.855 150.879 792.705 151.11 792.609 151.38C792.519 151.65 792.474 151.935 792.474 152.235H791.106C791.13 151.761 791.232 151.299 791.412 150.849C791.598 150.393 791.868 150.012 792.222 149.706C792.576 149.382 792.987 149.148 793.455 149.004C793.929 148.854 794.406 148.779 794.886 148.779C795.474 148.779 796.032 148.869 796.56 149.049C797.088 149.223 797.532 149.517 797.892 149.931C798.18 150.237 798.39 150.588 798.522 150.984C798.66 151.374 798.729 151.791 798.729 152.235C798.729 152.733 798.636 153.201 798.45 153.639C798.264 154.077 798.003 154.467 797.667 154.809C797.463 155.031 797.232 155.238 796.974 155.43C796.716 155.616 796.467 155.811 796.227 156.015C795.993 156.213 795.813 156.429 795.687 156.663C795.531 156.951 795.444 157.224 795.426 157.482C795.414 157.74 795.408 158.067 795.408 158.463H794.004ZM794.013 162V160.236H795.408V162H794.013Z" fill="white"/>
<g filter="url(#filter0_d_5_378)">
<rect x="557" y="206" width="171" height="60" rx="10" fill="white"/>
<path d="M603.372 242.24C602.22 242.24 601.234 241.989 600.412 241.488C599.591 240.981 598.959 240.277 598.516 239.376C598.079 238.475 597.86 237.429 597.86 236.24C597.86 235.051 598.079 234.005 598.516 233.104C598.959 232.203 599.591 231.501 600.412 231C601.234 230.493 602.22 230.24 603.372 230.24C604.7 230.24 605.807 230.573 606.692 231.24C607.578 231.901 608.199 232.795 608.556 233.92L606.612 234.456C606.388 233.704 606.007 233.117 605.468 232.696C604.93 232.269 604.231 232.056 603.372 232.056C602.599 232.056 601.954 232.229 601.436 232.576C600.924 232.923 600.538 233.411 600.276 234.04C600.02 234.664 599.89 235.397 599.884 236.24C599.884 237.083 600.012 237.819 600.268 238.448C600.53 239.072 600.919 239.557 601.436 239.904C601.954 240.251 602.599 240.424 603.372 240.424C604.231 240.424 604.93 240.211 605.468 239.784C606.007 239.357 606.388 238.771 606.612 238.024L608.556 238.56C608.199 239.685 607.578 240.581 606.692 241.248C605.807 241.909 604.7 242.24 603.372 242.24ZM614.449 242.24C613.585 242.24 612.83 242.045 612.185 241.656C611.539 241.267 611.038 240.731 610.681 240.048C610.329 239.36 610.153 238.571 610.153 237.68C610.153 236.773 610.334 235.979 610.697 235.296C611.059 234.613 611.563 234.08 612.209 233.696C612.854 233.312 613.601 233.12 614.449 233.12C615.318 233.12 616.075 233.315 616.721 233.704C617.366 234.093 617.867 234.632 618.225 235.32C618.582 236.003 618.761 236.789 618.761 237.68C618.761 238.576 618.579 239.368 618.217 240.056C617.859 240.739 617.358 241.275 616.713 241.664C616.067 242.048 615.313 242.24 614.449 242.24ZM614.449 240.432C615.217 240.432 615.787 240.176 616.161 239.664C616.534 239.152 616.721 238.491 616.721 237.68C616.721 236.843 616.531 236.176 616.153 235.68C615.774 235.179 615.206 234.928 614.449 234.928C613.931 234.928 613.505 235.045 613.169 235.28C612.838 235.509 612.593 235.832 612.433 236.248C612.273 236.659 612.193 237.136 612.193 237.68C612.193 238.517 612.382 239.187 612.761 239.688C613.145 240.184 613.707 240.432 614.449 240.432ZM626.819 242V237.84C626.819 237.568 626.801 237.267 626.763 236.936C626.726 236.605 626.638 236.288 626.499 235.984C626.366 235.675 626.163 235.421 625.891 235.224C625.625 235.027 625.262 234.928 624.803 234.928C624.558 234.928 624.315 234.968 624.075 235.048C623.835 235.128 623.617 235.267 623.419 235.464C623.227 235.656 623.073 235.923 622.955 236.264C622.838 236.6 622.779 237.032 622.779 237.56L621.635 237.072C621.635 236.336 621.777 235.669 622.059 235.072C622.347 234.475 622.769 234 623.323 233.648C623.878 233.291 624.561 233.112 625.371 233.112C626.011 233.112 626.539 233.219 626.955 233.432C627.371 233.645 627.702 233.917 627.947 234.248C628.193 234.579 628.374 234.931 628.491 235.304C628.609 235.677 628.683 236.032 628.715 236.368C628.753 236.699 628.771 236.968 628.771 237.176V242H626.819ZM620.827 242V233.36H622.547V236.04H622.779V242H620.827ZM636.243 242C635.672 242.107 635.112 242.152 634.563 242.136C634.019 242.125 633.531 242.027 633.099 241.84C632.667 241.648 632.339 241.347 632.115 240.936C631.918 240.563 631.814 240.181 631.803 239.792C631.792 239.403 631.787 238.963 631.787 238.472V230.96H633.707V238.36C633.707 238.707 633.71 239.011 633.715 239.272C633.726 239.533 633.782 239.747 633.883 239.912C634.075 240.232 634.382 240.411 634.803 240.448C635.224 240.485 635.704 240.464 636.243 240.384V242ZM630.219 234.872V233.36H636.243V234.872H630.219ZM640.837 242.24C640.213 242.24 639.685 242.123 639.253 241.888C638.821 241.648 638.493 241.331 638.269 240.936C638.05 240.541 637.941 240.107 637.941 239.632C637.941 239.216 638.01 238.843 638.149 238.512C638.288 238.176 638.501 237.888 638.789 237.648C639.077 237.403 639.45 237.203 639.909 237.048C640.256 236.936 640.661 236.835 641.125 236.744C641.594 236.653 642.101 236.571 642.645 236.496C643.194 236.416 643.768 236.331 644.365 236.24L643.677 236.632C643.682 236.035 643.549 235.595 643.277 235.312C643.005 235.029 642.546 234.888 641.901 234.888C641.512 234.888 641.136 234.979 640.773 235.16C640.41 235.341 640.157 235.653 640.013 236.096L638.253 235.544C638.466 234.813 638.872 234.227 639.469 233.784C640.072 233.341 640.882 233.12 641.901 233.12C642.669 233.12 643.344 233.245 643.925 233.496C644.512 233.747 644.946 234.157 645.229 234.728C645.384 235.032 645.477 235.344 645.509 235.664C645.541 235.979 645.557 236.323 645.557 236.696V242H643.869V240.128L644.149 240.432C643.76 241.056 643.304 241.515 642.781 241.808C642.264 242.096 641.616 242.24 640.837 242.24ZM641.221 240.704C641.658 240.704 642.032 240.627 642.341 240.472C642.65 240.317 642.896 240.128 643.077 239.904C643.264 239.68 643.389 239.469 643.453 239.272C643.554 239.027 643.61 238.747 643.621 238.432C643.637 238.112 643.645 237.853 643.645 237.656L644.237 237.832C643.656 237.923 643.157 238.003 642.741 238.072C642.325 238.141 641.968 238.208 641.669 238.272C641.37 238.331 641.106 238.397 640.877 238.472C640.653 238.552 640.464 238.645 640.309 238.752C640.154 238.859 640.034 238.981 639.949 239.12C639.869 239.259 639.829 239.421 639.829 239.608C639.829 239.821 639.882 240.011 639.989 240.176C640.096 240.336 640.25 240.464 640.453 240.56C640.661 240.656 640.917 240.704 641.221 240.704ZM651.712 242.24C650.821 242.24 650.061 242.043 649.432 241.648C648.802 241.248 648.32 240.704 647.984 240.016C647.653 239.328 647.485 238.549 647.48 237.68C647.485 236.795 647.658 236.011 648 235.328C648.346 234.64 648.837 234.101 649.472 233.712C650.106 233.317 650.861 233.12 651.736 233.12C652.717 233.12 653.546 233.368 654.224 233.864C654.906 234.355 655.352 235.027 655.56 235.88L653.64 236.4C653.49 235.936 653.242 235.576 652.896 235.32C652.549 235.059 652.154 234.928 651.712 234.928C651.21 234.928 650.797 235.048 650.472 235.288C650.146 235.523 649.906 235.848 649.752 236.264C649.597 236.68 649.52 237.152 649.52 237.68C649.52 238.501 649.704 239.165 650.072 239.672C650.44 240.179 650.986 240.432 651.712 240.432C652.224 240.432 652.626 240.315 652.92 240.08C653.218 239.845 653.442 239.507 653.592 239.064L655.56 239.504C655.293 240.384 654.826 241.061 654.16 241.536C653.493 242.005 652.677 242.24 651.712 242.24ZM662.547 242C661.976 242.107 661.416 242.152 660.867 242.136C660.323 242.125 659.835 242.027 659.403 241.84C658.971 241.648 658.643 241.347 658.419 240.936C658.221 240.563 658.117 240.181 658.107 239.792C658.096 239.403 658.091 238.963 658.091 238.472V230.96H660.011V238.36C660.011 238.707 660.013 239.011 660.019 239.272C660.029 239.533 660.085 239.747 660.187 239.912C660.379 240.232 660.685 240.411 661.107 240.448C661.528 240.485 662.008 240.464 662.547 240.384V242ZM656.523 234.872V233.36H662.547V234.872H656.523ZM672.888 242.24C671.97 242.24 671.162 242.053 670.464 241.68C669.77 241.307 669.226 240.781 668.832 240.104C668.442 239.427 668.248 238.632 668.248 237.72V230.496L670.2 230.48V237.672C670.2 238.104 670.272 238.491 670.416 238.832C670.565 239.173 670.765 239.464 671.016 239.704C671.266 239.939 671.554 240.117 671.88 240.24C672.205 240.363 672.541 240.424 672.888 240.424C673.245 240.424 673.584 240.363 673.904 240.24C674.229 240.112 674.517 239.931 674.768 239.696C675.018 239.456 675.216 239.165 675.36 238.824C675.504 238.483 675.576 238.099 675.576 237.672V230.48H677.528V237.72C677.528 238.632 677.33 239.427 676.936 240.104C676.546 240.781 676.002 241.307 675.304 241.68C674.61 242.053 673.805 242.24 672.888 242.24ZM683.419 242.24C682.353 242.24 681.486 242 680.819 241.52C680.153 241.04 679.747 240.365 679.603 239.496L681.571 239.192C681.673 239.619 681.897 239.955 682.243 240.2C682.59 240.445 683.027 240.568 683.555 240.568C684.019 240.568 684.377 240.477 684.627 240.296C684.883 240.109 685.011 239.856 685.011 239.536C685.011 239.339 684.963 239.181 684.867 239.064C684.777 238.941 684.574 238.824 684.259 238.712C683.945 238.6 683.462 238.459 682.811 238.288C682.086 238.096 681.51 237.891 681.083 237.672C680.657 237.448 680.35 237.184 680.163 236.88C679.977 236.576 679.883 236.208 679.883 235.776C679.883 235.237 680.025 234.768 680.307 234.368C680.59 233.968 680.985 233.661 681.491 233.448C681.998 233.229 682.595 233.12 683.283 233.12C683.955 233.12 684.55 233.224 685.067 233.432C685.59 233.64 686.011 233.936 686.331 234.32C686.651 234.704 686.849 235.155 686.923 235.672L684.955 236.024C684.907 235.656 684.739 235.365 684.451 235.152C684.169 234.939 683.79 234.819 683.315 234.792C682.862 234.765 682.497 234.835 682.219 235C681.942 235.16 681.803 235.387 681.803 235.68C681.803 235.845 681.859 235.987 681.971 236.104C682.083 236.221 682.307 236.339 682.643 236.456C682.985 236.573 683.491 236.717 684.163 236.888C684.851 237.064 685.401 237.267 685.811 237.496C686.227 237.72 686.526 237.989 686.707 238.304C686.894 238.619 686.987 239 686.987 239.448C686.987 240.317 686.67 241 686.035 241.496C685.406 241.992 684.534 242.24 683.419 242.24Z" fill="#1D2130"/>
</g>
</g>
<defs>
<filter id="filter0_d_5_378" x="553" y="204" width="179" height="68" filterUnits="userSpaceOnUse" color-interpolation-filters="sRGB">
<feFlood flood-opacity="0" result="BackgroundImageFix"/>
<feColorMatrix in="SourceAlpha" type="matrix" values="0 0 0 0 0 0 0 0 0 0 0 0 0 0 0 0 0 0 127 0" result="hardAlpha"/>
<feOffset dy="2"/>
<feGaussianBlur stdDeviation="2"/>
<feComposite in2="hardAlpha" operator="out"/>
<feColorMatrix type="matrix" values="0 0 0 0 0 0 0 0 0 0 0 0 0 0 0 0 0 0 0.07 0"/>
<feBlend mode="normal" in2="BackgroundImageFix" result="effect1_dropShadow_5_378"/>
<feBlend mode="normal" in="SourceGraphic" in2="effect1_dropShadow_5_378" result="shape"/>
</filter>
<clipPath id="clip0_5_378">
<rect width="1280" height="322" rx="16" fill="white"/>
</clipPath>
</defs>
</svg>
